<svg xmlns="http://www.w3.org/2000/svg" viewBox="0 0 860 160" width="860" height="160" font-family="'Segoe UI', system-ui, sans-serif">
  <defs>
    <pattern id="dots" x="0" y="0" width="18" height="18" patternUnits="userSpaceOnUse">
      <circle cx="2" cy="2" r="1.2" fill="#d0d4dc" opacity="0.6"/>
    </pattern>
    <filter id="cardShadow" x="-10%" y="-20%" width="120%" height="140%">
      <feDropShadow dx="0" dy="2" stdDeviation="4" flood-color="#b0b8c8" flood-opacity="0.22"/>
    </filter>
    <filter id="hubShadow" x="-10%" y="-30%" width="120%" height="160%">
      <feDropShadow dx="0" dy="3" stdDeviation="7" flood-color="#1a2050" flood-opacity="0.28"/>
    </filter>
    <linearGradient id="hubGrad" x1="0%" y1="0%" x2="100%" y2="100%">
      <stop offset="0%" stop-color="#1e2550"/>
      <stop offset="100%" stop-color="#141930"/>
    </linearGradient>
    <linearGradient id="orangeArrow" x1="0%" y1="0%" x2="100%" y2="0%">
      <stop offset="0%" stop-color="#f59e0b"/>
      <stop offset="100%" stop-color="#f97316"/>
    </linearGradient>
    <linearGradient id="blueArrow" x1="0%" y1="0%" x2="100%" y2="0%">
      <stop offset="0%" stop-color="#3b82f6"/>
      <stop offset="100%" stop-color="#2563eb"/>
    </linearGradient>
  </defs>

  <rect width="860" height="160" rx="20" fill="#eef0f4"/>
  <rect width="860" height="160" rx="20" fill="url(#dots)"/>

  <!-- Left card — File Storage -->
  <rect x="60" y="34" width="188" height="92" rx="14" fill="white" filter="url(#cardShadow)"/>
  <g transform="translate(84,50)">
    <rect x="0" y="20" width="38" height="8" rx="4" fill="#ef4444"/>
    <rect x="0" y="11" width="38" height="8" rx="4" fill="#f87171"/>
    <rect x="0" y="2"  width="38" height="8" rx="4" fill="#fca5a5"/>
  </g>
  <g transform="translate(136,54)">
    <path d="M0 0 L12 0 L17 5 L17 26 L0 26 Z" fill="none" stroke="#6b7280" stroke-width="1.6"/>
    <path d="M12 0 L12 5 L17 5" fill="none" stroke="#6b7280" stroke-width="1.6"/>
    <line x1="3" y1="12" x2="14" y2="12" stroke="#9ca3af" stroke-width="1.2"/>
    <line x1="3" y1="17" x2="14" y2="17" stroke="#9ca3af" stroke-width="1.2"/>
  </g>
  <text x="154" y="96" text-anchor="middle" font-size="13.5" fill="#374151" font-weight="700">File Storage</text>
  <text x="154" y="113" text-anchor="middle" font-size="10.5" fill="#9ca3af">S3 / Blob / GCS</text>

  <!-- Orange arrow -->
  <line x1="250" y1="80" x2="295" y2="80" stroke="url(#orangeArrow)" stroke-width="2.8"/>
  <polygon points="295,74 308,80 295,86" fill="#f97316"/>

  <!-- Hub pill -->
  <rect x="308" y="56" width="244" height="48" rx="24" fill="url(#hubGrad)" filter="url(#hubShadow)"/>
  <g transform="translate(338,72)">
    <rect x="0" y="0" width="17" height="17" rx="3.5" fill="#3b82f6"/>
    <path d="M3 8.5 L8.5 3 L14 8.5 L8.5 14 Z" fill="white" opacity="0.9"/>
  </g>
  <text x="430" y="86" text-anchor="middle" font-size="16" font-weight="700" fill="white" letter-spacing="0.5">deliveryhub</text>

  <!-- Blue arrow -->
  <line x1="552" y1="80" x2="597" y2="80" stroke="url(#blueArrow)" stroke-width="2.8"/>
  <polygon points="597,74 610,80 597,86" fill="#2563eb"/>

  <!-- Right card — File Storage -->
  <rect x="612" y="34" width="188" height="92" rx="14" fill="white" filter="url(#cardShadow)"/>
  <g transform="translate(636,50)">
    <rect x="0" y="20" width="38" height="8" rx="4" fill="#3b82f6"/>
    <rect x="0" y="11" width="38" height="8" rx="4" fill="#60a5fa"/>
    <rect x="0" y="2"  width="38" height="8" rx="4" fill="#93c5fd"/>
  </g>
  <g transform="translate(688,54)">
    <path d="M0 0 L12 0 L17 5 L17 26 L0 26 Z" fill="none" stroke="#6b7280" stroke-width="1.6"/>
    <path d="M12 0 L12 5 L17 5" fill="none" stroke="#6b7280" stroke-width="1.6"/>
    <line x1="3" y1="12" x2="14" y2="12" stroke="#9ca3af" stroke-width="1.2"/>
    <line x1="3" y1="17" x2="14" y2="17" stroke="#9ca3af" stroke-width="1.2"/>
  </g>
  <text x="706" y="96" text-anchor="middle" font-size="13.5" fill="#374151" font-weight="700">File Storage</text>
  <text x="706" y="113" text-anchor="middle" font-size="10.5" fill="#9ca3af">S3 / Blob / GCS</text>
</svg>
