<?xml version="1.0" encoding="UTF-8"?>
<svg version="1.1" xmlns="http://www.w3.org/2000/svg" width="796" height="291">
<path d="M0 0 C0.98129379 -0.0127597 1.96258759 -0.02551941 2.97361755 -0.03866577 C4.02267776 -0.04089142 5.07173798 -0.04311707 6.15258789 -0.04541016 C7.24108536 -0.05206696 8.32958282 -0.05872375 9.45106506 -0.06558228 C11.74991163 -0.07569388 14.04878747 -0.08039976 16.34765625 -0.08007812 C19.85929789 -0.08445279 23.36968397 -0.12079396 26.88110352 -0.15869141 C29.11742735 -0.16455958 31.35375715 -0.16852897 33.59008789 -0.17041016 C34.63712387 -0.18478119 35.68415985 -0.19915222 36.76292419 -0.21395874 C42.80196852 -0.17621182 46.37007668 0.2089391 50.93774414 4.29052734 C53.13889556 7.59225447 53.20036727 8.6480946 53.24414062 12.49291992 C53.26012802 13.55444778 53.27611542 14.61597565 53.29258728 15.70967102 C53.29794998 16.85654892 53.30331268 18.00342682 53.30883789 19.18505859 C53.31786636 20.36517014 53.32689484 21.54528168 53.3361969 22.76115417 C53.35071596 25.26025856 53.35959023 27.75940109 53.36328125 30.25854492 C53.37516565 34.07780277 53.42432897 37.8954393 53.47485352 41.71435547 C53.48431886 44.14208195 53.49155336 46.56981837 53.49633789 48.99755859 C53.51587021 50.1383638 53.53540253 51.27916901 53.55552673 52.45454407 C53.50527655 61.30935837 53.50527655 61.30935837 50.59033203 64.99633789 C47.85676755 67.36056296 46.32936306 68.3245749 42.70188904 68.23582458 C41.827668 68.15518265 40.95344696 68.07454071 40.05273438 67.99145508 C9.29679974 64.04425641 9.29679974 64.04425641 -18.42553711 74.07568359 C-24.95463453 79.93439995 -30.34098575 86.92456236 -35.06225586 94.29052734 C-33.73537807 97.66943706 -32.27698608 100.84109168 -30.56225586 104.04052734 C-25.16844049 114.79633616 -24.41631584 126.78938609 -28.06225586 138.29052734 C-30.16283899 143.40094039 -32.62012602 148.33738416 -35.06225586 153.29052734 C-31.61709625 158.56792989 -27.86533416 163.37151577 -21.52966309 164.90252686 C-14.27554665 165.74619457 -6.97199588 165.44765425 0.31274414 165.22802734 C3.6113712 165.16662058 6.90905022 165.12107495 10.2081604 165.09681702 C12.2508285 165.07791468 14.29345095 165.03568026 16.33505249 164.96702576 C20.70450852 164.89246613 23.20728971 164.86018165 27.0378418 167.11694336 C29.73881291 170.20699036 30.06445129 172.70894548 30.11474609 176.66674805 C30.13399895 177.98875969 30.13399895 177.98875969 30.15364075 179.33747864 C30.16102768 180.28749252 30.16841461 181.23750641 30.17602539 182.21630859 C30.18409714 183.19665573 30.19216888 184.17700287 30.20048523 185.1870575 C30.21431694 187.26246374 30.22504318 189.33789265 30.23291016 191.41333008 C30.25012182 194.58051842 30.29401638 197.74666249 30.33813477 200.91357422 C30.34826214 202.93114468 30.3567781 204.948724 30.36352539 206.96630859 C30.38978752 208.38222038 30.38978752 208.38222038 30.4165802 209.82673645 C30.3976159 215.60112097 29.84009261 218.92524069 25.93774414 223.29052734 C23.13320289 224.22537443 21.35977181 224.43156638 18.45385742 224.4675293 C17.09697311 224.48678215 17.09697311 224.48678215 15.712677 224.50642395 C14.25013992 224.51750435 14.25013992 224.51750435 12.75805664 224.52880859 C11.25068436 224.54091621 11.25068436 224.54091621 9.71286011 224.55326843 C7.58617881 224.56709975 5.4594754 224.57782616 3.33276367 224.58569336 C0.08217381 224.60292435 -3.1674037 224.6468216 -6.41772461 224.69091797 C-8.48412338 224.70104355 -10.5505308 224.70956007 -12.61694336 224.71630859 C-13.58791962 224.73381668 -14.55889587 224.75132477 -15.55929565 224.7693634 C-19.91973444 224.75535874 -22.37158877 224.71552387 -26.15258789 222.38891602 C-28.85352484 219.42106213 -29.18096539 217.93528382 -29.07714844 214.03125 C-29.04896782 212.70814316 -29.04896782 212.70814316 -29.0202179 211.35830688 C-28.99928574 210.40008026 -28.97835358 209.44185364 -28.95678711 208.45458984 C-28.93271174 205.35156706 -28.91924106 202.24859321 -28.90576172 199.14550781 C-28.88526029 197.00980808 -28.84522083 194.87419739 -28.78466797 192.73925781 C-28.03408796 178.48799159 -28.03408796 178.48799159 -34.43815613 166.38656616 C-36.8646646 164.13967875 -39.34516487 162.17793106 -42.06225586 160.29052734 C-43.07852051 160.80824707 -44.09478516 161.3259668 -45.1418457 161.859375 C-46.31183105 162.45540527 -47.48181641 163.05143555 -48.68725586 163.66552734 C-49.36353027 164.01276855 -50.03980469 164.36000977 -50.73657227 164.71777344 C-61.37742873 170.08621718 -72.76717302 171.05037863 -84.46850586 168.56787109 C-90.12378728 166.60599678 -95.18892899 163.7443301 -100.06225586 160.29052734 C-100.92850586 159.69240234 -101.79475586 159.09427734 -102.68725586 158.47802734 C-111.19552143 150.64146695 -116.41204079 139.73266401 -117.30053711 128.19677734 C-117.54302054 117.06806413 -115.80030965 106.92877349 -108.82006836 97.97412109 C-108.44495117 97.14074219 -108.44495117 97.14074219 -108.06225586 96.29052734 C-110.07079427 91.25828686 -113.71295914 87.42809147 -118.06225586 84.29052734 C-121.58322738 83.24623875 -124.86002818 83.2824863 -128.51147461 83.39599609 C-129.48711868 83.39223465 -130.46276276 83.38847321 -131.4679718 83.38459778 C-134.56335728 83.3783247 -137.65486347 83.4252036 -140.74975586 83.47802734 C-143.85456598 83.50426789 -146.95875341 83.51906498 -150.06367493 83.51789856 C-151.98922254 83.51992192 -153.91484949 83.53910053 -155.8400116 83.5776825 C-160.72947822 83.61137345 -164.14308774 83.5743101 -168.06225586 80.29052734 C-170.16941893 77.12978274 -170.31886709 76.332667 -170.3527832 72.71484375 C-170.36554291 71.79023346 -170.37830261 70.86562317 -170.39144897 69.91299438 C-170.39367462 68.91609589 -170.39590027 67.91919739 -170.39819336 66.89208984 C-170.40817856 65.35142349 -170.40817856 65.35142349 -170.41836548 63.77963257 C-170.4284946 61.60587354 -170.43318242 59.43208339 -170.43286133 57.25830078 C-170.43723001 53.93518691 -170.47353546 50.61340577 -170.51147461 47.29052734 C-170.5173436 45.17855272 -170.52131244 43.06657179 -170.52319336 40.95458984 C-170.53756439 39.96173981 -170.55193542 38.96888977 -170.56674194 37.94595337 C-170.53762056 33.54023611 -170.50174719 31.00708195 -168.15844727 27.18652344 C-165.16446817 24.47848225 -163.53890001 24.16107637 -159.60009766 24.11352539 C-158.67541183 24.10069016 -157.75072601 24.08785492 -156.79801941 24.07463074 C-155.79595963 24.0672438 -154.79389984 24.05985687 -153.76147461 24.05224609 C-152.73294876 24.04417435 -151.70442291 24.0361026 -150.64472961 24.02778625 C-148.46499318 24.01393968 -146.285235 24.0032201 -144.10546875 23.99536133 C-140.77358859 23.97815045 -137.442701 23.93426899 -134.11108398 23.89013672 C-131.99455483 23.88000979 -129.87801723 23.87149368 -127.76147461 23.86474609 C-126.76548752 23.84723801 -125.76950043 23.82972992 -124.74333191 23.81169128 C-120.36844063 23.82539267 -117.78079077 23.86509911 -113.95605469 26.12963867 C-111.19884417 29.27570936 -110.94064 31.67593905 -111.10742188 35.69506836 C-111.13977432 36.58351944 -111.17212677 37.47197052 -111.20545959 38.38734436 C-111.24199142 39.34668381 -111.27852325 40.30602325 -111.31616211 41.29443359 C-111.36781316 43.33537973 -111.41654679 45.37640139 -111.46264648 47.41748047 C-111.53633341 50.62959385 -111.6240924 53.83755256 -111.76171875 57.04760742 C-112.86751324 69.5934107 -112.86751324 69.5934107 -108.79614258 80.98535156 C-106.34001653 83.44234382 -103.99763559 85.44413746 -101.06225586 87.29052734 C-97.31827909 85.81157756 -93.78257399 84.16198821 -90.22241211 82.29052734 C-80.06537681 77.58853632 -67.7340311 76.86520719 -57.06225586 80.29052734 C-53.86023898 81.76088101 -50.76965366 83.3348785 -47.69116211 85.04833984 C-44.94409184 86.5753406 -44.94409184 86.5753406 -41.06225586 86.29052734 C-30.76018475 80.59594202 -19.81756111 71.2405623 -15.06225586 60.29052734 C-11.56517047 46.23475282 -12.86642926 30.54949236 -14.00422668 16.23400879 C-14.3066835 11.64729781 -14.37440276 8.95757349 -12.39379883 4.72509766 C-8.74006857 0.90991461 -5.18426051 0.04600776 0 0 Z " fill="#7E8286" transform="translate(682.062255859375,59.70947265625)"/>
<path d="M0 0 C0.98129379 -0.0127597 1.96258759 -0.02551941 2.97361755 -0.03866577 C4.02267776 -0.04089142 5.07173798 -0.04311707 6.15258789 -0.04541016 C7.24108536 -0.05206696 8.32958282 -0.05872375 9.45106506 -0.06558228 C11.74991163 -0.07569388 14.04878747 -0.08039976 16.34765625 -0.08007812 C19.85929789 -0.08445279 23.36968397 -0.12079396 26.88110352 -0.15869141 C29.11742735 -0.16455958 31.35375715 -0.16852897 33.59008789 -0.17041016 C34.63712387 -0.18478119 35.68415985 -0.19915222 36.76292419 -0.21395874 C42.80196852 -0.17621182 46.37007668 0.2089391 50.93774414 4.29052734 C53.13889556 7.59225447 53.20036727 8.6480946 53.24414062 12.49291992 C53.26012802 13.55444778 53.27611542 14.61597565 53.29258728 15.70967102 C53.29794998 16.85654892 53.30331268 18.00342682 53.30883789 19.18505859 C53.31786636 20.36517014 53.32689484 21.54528168 53.3361969 22.76115417 C53.35071596 25.26025856 53.35959023 27.75940109 53.36328125 30.25854492 C53.37516565 34.07780277 53.42432897 37.8954393 53.47485352 41.71435547 C53.48431886 44.14208195 53.49155336 46.56981837 53.49633789 48.99755859 C53.51587021 50.1383638 53.53540253 51.27916901 53.55552673 52.45454407 C53.50527655 61.30935837 53.50527655 61.30935837 50.59033203 64.99633789 C47.85946811 67.35822728 46.3339156 68.32900406 42.70861816 68.22909546 C41.40181091 68.10360825 41.40181091 68.10360825 40.06860352 67.97558594 C9.15221803 63.99033313 9.15221803 63.99033313 -18.64819336 74.29833984 C-25.43684359 80.41320317 -31.07284943 87.66444272 -36.06225586 95.29052734 C-38.37225586 93.31052734 -40.68225586 91.33052734 -43.06225586 89.29052734 C-39.63514665 84.82419252 -36.40208508 81.73219436 -31.69897461 78.62255859 C-23.98575306 73.02832578 -16.56281559 67.15840067 -14.43621826 57.42523193 C-13.04547354 47.06633956 -13.30198945 36.61709545 -13.65087891 26.19604492 C-13.68864944 25.06669022 -13.72641998 23.93733551 -13.76533508 22.77375793 C-13.85188984 20.62664934 -13.96429759 18.48037824 -14.10636902 16.33622742 C-14.34549425 11.73080219 -14.37446942 8.95585579 -12.38500977 4.71630859 C-8.73665589 0.90612948 -5.17634576 0.04593752 0 0 Z " fill="#FDEB00" transform="translate(682.062255859375,59.70947265625)"/>
<path d="M0 0 C1.04458319 0.87151615 2.08546407 1.74746967 3.125 2.625 C3.99511719 3.35589844 3.99511719 3.35589844 4.8828125 4.1015625 C7 6 7 6 9.45043945 9.07714844 C12.97569133 12.59034259 16.03638189 12.69557496 20.86988831 12.72964478 C21.87317673 12.70800262 22.87646515 12.68636047 23.91015625 12.6640625 C25.4777494 12.670392 25.4777494 12.670392 27.07701111 12.67684937 C30.4062347 12.68769723 33.73346177 12.65965993 37.0625 12.625 C40.3948372 12.60094501 43.72628136 12.58576641 47.05870056 12.59457397 C49.12887233 12.59914656 51.19919836 12.58447232 53.26905823 12.54824829 C57.66316695 12.54989379 60.2668914 12.56702697 64.11108398 14.83740234 C66.80481881 17.92142756 67.12682405 20.42761763 67.17700195 24.3762207 C67.19625481 25.69823235 67.19625481 25.69823235 67.21589661 27.04695129 C67.22328354 27.99696518 67.23067047 28.94697906 67.23828125 29.92578125 C67.246353 30.90612839 67.25442474 31.88647552 67.26274109 32.89653015 C67.2765728 34.9719364 67.28729904 37.04736531 67.29516602 39.12280273 C67.31237768 42.28999108 67.35627223 45.45613515 67.40039062 48.62304688 C67.410518 50.64061733 67.41903396 52.65819666 67.42578125 54.67578125 C67.44328934 55.61972244 67.46079742 56.56366364 67.47883606 57.53620911 C67.45987176 63.31059363 66.90234847 66.63471334 63 71 C60.19545875 71.93484708 58.42202767 72.14103903 55.51611328 72.17700195 C54.15922897 72.19625481 54.15922897 72.19625481 52.77493286 72.21589661 C51.79990814 72.22328354 50.82488342 72.23067047 49.8203125 72.23828125 C48.31294022 72.25038887 48.31294022 72.25038887 46.77511597 72.26274109 C44.64843467 72.27657241 42.52173126 72.28729882 40.39501953 72.29516602 C37.14442967 72.31239701 33.89485216 72.35629426 30.64453125 72.40039062 C28.57813248 72.4105162 26.51172506 72.41903273 24.4453125 72.42578125 C23.47433624 72.44328934 22.50335999 72.46079742 21.50296021 72.47883606 C17.14252142 72.4648314 14.69066709 72.42499652 10.90966797 70.09838867 C8.20985062 67.13176504 7.88161542 65.65789796 8.00097656 61.7565918 C8.02299133 60.87774826 8.0450061 59.99890472 8.06768799 59.09342957 C8.0917572 58.13834 8.11582642 57.18325043 8.140625 56.19921875 C8.17214458 53.10279933 8.19203856 50.00642949 8.21142578 46.90991211 C8.23691062 44.78096065 8.28372074 42.65214558 8.35302734 40.52416992 C9.05297049 25.98413218 9.05297049 25.98413218 2.26190186 13.73384094 C-0.37287556 11.27908086 -3.07419861 9.10148465 -6 7 C-5.34 6.01 -4.68 5.02 -4 4 C-3.34 4 -2.68 4 -2 4 C-1.34 2.68 -0.68 1.36 0 0 Z " fill="#FDEA00" transform="translate(645,212)"/>
<path d="M0 0 C0.92468582 -0.01283524 1.84937164 -0.02567047 2.80207825 -0.03889465 C3.80413803 -0.04628159 4.80619781 -0.05366852 5.83862305 -0.0612793 C6.8671489 -0.06935104 7.89567474 -0.07742279 8.95536804 -0.08573914 C11.13510448 -0.09958571 13.31486266 -0.11030529 15.49462891 -0.11816406 C18.82650907 -0.13537494 22.15739666 -0.1792564 25.48901367 -0.22338867 C27.60554283 -0.23351561 29.72208042 -0.24203171 31.83862305 -0.2487793 C32.83461014 -0.26628738 33.83059723 -0.28379547 34.85676575 -0.30183411 C39.23165703 -0.28813272 41.81930689 -0.24842628 45.64404297 2.01611328 C48.40032303 5.16112229 48.65971767 7.54902044 48.47680664 11.56567383 C48.4412265 12.45089722 48.40564636 13.33612061 48.36898804 14.24816895 C48.32931915 15.20437134 48.28965027 16.16057373 48.2487793 17.14575195 C48.19224557 19.18212532 48.1389664 21.21859115 48.08862305 23.25512695 C48.00887271 26.45883974 47.91376381 29.65743239 47.76293945 32.85864258 C46.66167265 45.60624948 46.66167265 45.60624948 51.03100586 57.09887695 C53.57602745 59.86454824 56.40214621 62.09895343 59.5378418 64.17700195 C57.5578418 66.48700195 55.5778418 68.79700195 53.5378418 71.17700195 C46.75577325 65.4587873 46.75577325 65.4587873 44.54638672 62.60205078 C40.2408351 59.13154488 36.75776882 59.49935064 31.3815918 59.57543945 C30.40170288 59.56743317 29.42181396 59.55942688 28.41223145 59.55117798 C25.28701255 59.52812614 22.16309555 59.5375666 19.0378418 59.55200195 C15.91283218 59.55585108 12.78839721 59.55239938 9.66345215 59.53140259 C7.72134833 59.51932681 5.77908312 59.52196053 3.83703613 59.54110718 C-1.06028856 59.52086431 -4.53981523 59.46133869 -8.4621582 56.17700195 C-10.56932127 53.01625735 -10.71876943 52.21914161 -10.75268555 48.60131836 C-10.76544525 47.67670807 -10.77820496 46.75209778 -10.79135132 45.79946899 C-10.79357697 44.8025705 -10.79580261 43.805672 -10.7980957 42.77856445 C-10.8080809 41.2378981 -10.8080809 41.2378981 -10.81826782 39.66610718 C-10.82839694 37.49234814 -10.83308476 35.318558 -10.83276367 33.14477539 C-10.83713236 29.82166152 -10.8734378 26.49988038 -10.91137695 23.17700195 C-10.91724594 21.06502733 -10.92121478 18.95304639 -10.9230957 16.84106445 C-10.93746674 15.84821442 -10.95183777 14.85536438 -10.96664429 13.83242798 C-10.9375229 9.42671071 -10.90164953 6.89355655 -8.55834961 3.07299805 C-5.56437052 0.36495686 -3.93880235 0.04755098 0 0 Z " fill="#FDEA00" transform="translate(522.462158203125,83.822998046875)"/>
<path d="M0 0 C5.61 0 11.22 0 17 0 C21.00322544 8.65053417 24.3495724 17.5382226 27.75 26.4375 C28.40163121 28.13823834 29.05340809 29.83892088 29.70532227 31.53955078 C31.44177425 36.07185375 33.17470442 40.60549572 34.90679932 45.13946533 C36.02465988 48.06452653 37.14376202 50.9891101 38.26318359 53.91357422 C40.13032064 58.79183079 41.99540928 63.67086534 43.85876465 68.55056763 C44.5779566 70.43361433 45.29760187 72.31648795 46.0177002 74.19918823 C47.02259225 76.82746821 48.02529122 79.45657386 49.02734375 82.0859375 C49.32972458 82.87572495 49.63210541 83.66551239 49.94364929 84.47923279 C52 89.8855475 52 89.8855475 52 91 C45.4 91 38.8 91 32 91 C29.36 84.07 26.72 77.14 24 70 C13.77 69.67 3.54 69.34 -7 69 C-7.99 72.3 -8.98 75.6 -10 79 C-10.68638719 81.02839249 -11.38994657 83.05123176 -12.125 85.0625 C-12.62386719 86.44115234 -12.62386719 86.44115234 -13.1328125 87.84765625 C-14 90 -14 90 -15 91 C-16.41570123 91.08651611 -17.835595 91.10704904 -19.25390625 91.09765625 C-20.10791016 91.09443359 -20.96191406 91.09121094 -21.84179688 91.08789062 C-22.73962891 91.07951172 -23.63746094 91.07113281 -24.5625 91.0625 C-25.46419922 91.05798828 -26.36589844 91.05347656 -27.29492188 91.04882812 C-29.53001634 91.03700223 -31.76496493 91.01968245 -34 91 C-32.11381692 85.23508528 -30.12615742 79.52381531 -27.98828125 73.84765625 C-27.7026532 73.08557358 -27.41702515 72.32349091 -27.1227417 71.53831482 C-26.18778563 69.04569986 -25.25025564 66.55406294 -24.3125 64.0625 C-23.65614191 62.3151142 -22.99981102 60.56771818 -22.34350586 58.8203125 C-14.96312529 39.18793388 -7.48495874 19.59269096 0 0 Z M8 23 C6.42931142 27.23432728 4.86284151 31.47018165 3.30029297 35.70751953 C2.76792764 37.14935584 2.23440373 38.59076492 1.69970703 40.03173828 C0.93218234 42.1007798 0.1688116 44.17131251 -0.59375 46.2421875 C-0.83436157 46.88807831 -1.07497314 47.53396912 -1.32287598 48.19943237 C-2.58702153 51.51246197 -2.58702153 51.51246197 -3 55 C4.59 55 12.18 55 20 55 C18.39699197 47.78646388 16.52176986 41.37090918 14 34.5 C13.64421875 33.4996875 13.2884375 32.499375 12.921875 31.46875 C12.40367188 30.045625 12.40367188 30.045625 11.875 28.59375 C11.56304687 27.73458984 11.25109375 26.87542969 10.9296875 25.99023438 C10.1697329 23.82607475 10.1697329 23.82607475 8 23 Z " fill="#FDEB00" transform="translate(43,138)"/>
<path d="M0 0 C8.085 -0.103125 16.17 -0.20625 24.5 -0.3125 C27.03751953 -0.35802002 29.57503906 -0.40354004 32.18945312 -0.45043945 C34.22003867 -0.46505423 36.25063895 -0.47779256 38.28125 -0.48828125 C39.31991211 -0.51386108 40.35857422 -0.53944092 41.42871094 -0.5657959 C48.24407179 -0.56985653 52.73979521 0.54726426 58 5 C60.05859375 7.31640625 60.05859375 7.31640625 61.4375 9.5625 C61.91058594 10.30628906 62.38367188 11.05007812 62.87109375 11.81640625 C65.93980509 17.75207974 66.05527878 25.12863443 64.31640625 31.5078125 C62.15631389 36.79600542 59.25363293 40.22973444 55 44 C55.90492188 44.61875 55.90492188 44.61875 56.828125 45.25 C63.49014671 50.06384795 66.43687743 54.31063229 69 62 C69.76055391 70.23445863 68.40740644 76.27946278 63.9375 83.1875 C59.04326887 88.52283263 52.32256577 91.2494475 45.18310547 91.56762695 C43.07763371 91.56639683 40.97203513 91.53955794 38.8671875 91.48828125 C37.37844116 91.48072815 37.37844116 91.48072815 35.85961914 91.47302246 C32.19778012 91.44711653 28.53635706 91.37731192 24.875 91.3125 C12.561875 91.1578125 12.561875 91.1578125 0 91 C0 60.97 0 30.94 0 0 Z M10 8 C10 18.89 10 29.78 10 41 C14.73324406 41.09210637 19.46334929 41.17165193 24.19677734 41.21972656 C25.80495774 41.23977627 27.41306583 41.26702364 29.02099609 41.30175781 C31.3397002 41.35057264 33.65743625 41.37303428 35.9765625 41.390625 C36.68930328 41.41127014 37.40204407 41.43191528 38.13638306 41.45318604 C43.2485088 41.45545651 46.05778392 40.19135246 50 37 C54.62280935 31.75248668 55.35331 28.6524561 55.28125 21.76171875 C54.7615057 16.65811847 52.12830792 14.04368482 48.5 10.6875 C43.99315659 7.6453807 39.98417986 7.88101516 34.609375 7.90234375 C33.31999023 7.90484131 32.03060547 7.90733887 30.70214844 7.90991211 C29.06793945 7.91901611 27.43373047 7.92812012 25.75 7.9375 C20.5525 7.958125 15.355 7.97875 10 8 Z M10 49 C10 60.22 10 71.44 10 83 C14.85690637 83.06912835 19.71208421 83.12878152 24.5690918 83.16479492 C26.21889044 83.17981806 27.86864958 83.2002426 29.51831055 83.22631836 C31.89902536 83.26298899 34.27920908 83.27979103 36.66015625 83.29296875 C37.75433617 83.31619453 37.75433617 83.31619453 38.87062073 83.33988953 C44.6695362 83.34176613 49.46934957 82.21809998 53.9609375 78.28125 C54.42757812 77.6934375 54.89421875 77.105625 55.375 76.5 C55.85710937 75.9121875 56.33921875 75.324375 56.8359375 74.71875 C59.47490509 70.82228778 59.57391856 66.53476497 59 62 C57.15337674 56.1646705 54.48425857 52.91715881 49 50 C45.24151826 48.74717275 41.74509081 48.87618165 37.83203125 48.90234375 C37.03721848 48.9037587 36.2424057 48.90517365 35.42350769 48.90663147 C32.88646675 48.91222622 30.34951425 48.92477772 27.8125 48.9375 C26.09179815 48.94251568 24.37109492 48.94707847 22.65039062 48.95117188 C18.43353231 48.96134278 14.21686509 48.98091916 10 49 Z " fill="#7E8286" transform="translate(450,138)"/>
<path d="M0 0 C25.08 0 50.16 0 76 0 C76 5.28 76 10.56 76 16 C66.43 16 56.86 16 47 16 C47 40.75 47 65.5 47 91 C41.06 91 35.12 91 29 91 C29 66.25 29 41.5 29 16 C19.43 16 9.86 16 0 16 C0 10.72 0 5.44 0 0 Z " fill="#FEEB00" transform="translate(171,138)"/>
<path d="M0 0 C5.94 0 11.88 0 18 0 C18 24.75 18 49.5 18 75 C33.18 75 48.36 75 64 75 C64 80.28 64 85.56 64 91 C42.88 91 21.76 91 0 91 C0 60.97 0 30.94 0 0 Z " fill="#FEEB00" transform="translate(104,138)"/>
<path d="M0 0 C3.3 0 6.6 0 10 0 C10 13.2 10 26.4 10 40 C27.49 40 44.98 40 63 40 C63 26.8 63 13.6 63 0 C66.3 0 69.6 0 73 0 C73 30.03 73 60.06 73 91 C69.7 91 66.4 91 63 91 C63 77.14 63 63.28 63 49 C45.51 49 28.02 49 10 49 C10 62.86 10 76.72 10 91 C6.7 91 3.4 91 0 91 C0 60.97 0 30.94 0 0 Z " fill="#7E8286" transform="translate(259,138)"/>
<path d="M0 0 C3.3 0 6.6 0 10 0 C10.01458252 1.60327148 10.02916504 3.20654297 10.04418945 4.85839844 C10.10251227 10.85226859 10.17974205 16.84577634 10.26245117 22.83935547 C10.29554133 25.42490726 10.32362184 28.01052852 10.34643555 30.59619141 C10.380275 34.33005155 10.43260566 38.06328403 10.48828125 41.796875 C10.49467117 42.93799744 10.5010611 44.07911987 10.50764465 45.25482178 C10.7116958 56.59676432 12.34672237 67.20806399 20 76 C26.57742272 81.45786141 33.60821527 82.49209641 41.9375 82.3046875 C48.7165901 81.63023721 54.07801975 79.3886423 58.875 74.5 C67.18210214 63.97897677 67.1083936 50.16456839 67.31640625 37.40234375 C67.3475779 35.79003624 67.3475779 35.79003624 67.37937927 34.14515686 C67.44428168 30.74266381 67.50348146 27.34009968 67.5625 23.9375 C67.60574174 21.61783146 67.64935775 19.29816987 67.69335938 16.97851562 C67.7999015 11.31908154 67.90133257 5.65957663 68 0 C70.97 0 73.94 0 77 0 C77.06999824 7.35494762 77.12306099 14.70982156 77.15543652 22.06503677 C77.17098758 25.48162993 77.19202813 28.89799258 77.22631836 32.31445312 C77.26562883 36.2564808 77.2797964 40.19842032 77.29296875 44.140625 C77.30845261 45.34736877 77.32393646 46.55411255 77.33988953 47.79742432 C77.3423958 60.63108663 75.0000945 72.30580331 66.1484375 82.03515625 C56.99284356 90.6253649 47.01106123 92.43383123 34.7890625 92.20703125 C25.42193504 91.69521913 17.92401923 88.37799758 11 82 C1.09484806 69.84198455 -0.16566557 56.59208906 -0.09765625 41.50390625 C-0.0962413 40.31522446 -0.09482635 39.12654266 -0.09336853 37.90184021 C-0.08779114 34.12203406 -0.07524275 30.34228811 -0.0625 26.5625 C-0.05748208 23.9928394 -0.05291968 21.42317787 -0.04882812 18.85351562 C-0.03782911 12.56898738 -0.02058002 6.28450388 0 0 Z " fill="#7E8286" transform="translate(352,138)"/>
<path d="M0 0 C9.9 0 19.8 0 30 0 C30 9.9 30 19.8 30 30 C20.1 30 10.2 30 0 30 C0 20.1 0 10.2 0 0 Z " fill="#FEEB00" transform="translate(750,71)"/>
<path d="M0 0 C9.9 0 19.8 0 30 0 C30 9.9 30 19.8 30 30 C20.1 30 10.2 30 0 30 C0 20.1 0 10.2 0 0 Z " fill="#FEEB00" transform="translate(729,8)"/>
<path d="M0 0 C9.57 0 19.14 0 29 0 C29 9.57 29 19.14 29 29 C19.43 29 9.86 29 0 29 C0 19.43 0 9.86 0 0 Z " fill="#FEEB00" transform="translate(681,23)"/>
<path d="M0 0 C6.93 0 13.86 0 21 0 C21 6.6 21 13.2 21 20 C14.07 20 7.14 20 0 20 C0 13.4 0 6.8 0 0 Z " fill="#FEEB00" transform="translate(768,37)"/>
</svg>
