<svg viewBox="0 0 800 350" xmlns="http://www.w3.org/2000/svg">
  <!-- Left box: Provider Data source -->
  <rect x="50" y="50" width="280" height="250" rx="12" fill="none" stroke="#374151" stroke-width="2"/>
  
  <!-- Left label -->
  <text x="65" y="80" font-size="14" font-weight="600" fill="#9ca3af">Provider</text>
  <text x="65" y="100" font-size="18" font-weight="700" fill="#f9fafb">Data source</text>
  
  <!-- Left icon (hexagon with chart) -->
  <g transform="translate(190, 170)">
    <polygon points="0,-50 43,-25 43,25 0,50 -43,25 -43,-25" fill="#3b82f6" stroke="none"/>
    <rect x="-25" y="-15" width="8" height="25" fill="#1e1e2e"/>
    <rect x="-8" y="-5" width="8" height="15" fill="#1e1e2e"/>
    <rect x="9" y="-25" width="8" height="35" fill="#1e1e2e"/>
  </g>

  <!-- Center arrow and label -->
  <defs>
    <marker id="arrowhead-dark" markerWidth="10" markerHeight="10" refX="9" refY="3" orient="auto">
      <polygon points="0 0, 10 3, 0 6" fill="#fb923c"/>
    </marker>
  </defs>
  <line x1="340" y1="175" x2="458" y2="175" stroke="#fb923c" stroke-width="2.5" marker-end="url(#arrowhead-dark)"/>
  <rect x="352" y="148" width="148" height="36" rx="6" fill="#1c1917" stroke="#fb923c" stroke-width="1.5"/>
  <text x="426" y="171" font-size="13" font-weight="600" fill="#fdba74" text-anchor="middle">Grant read access</text>

  <!-- Right box: DeliveryHub -->
  <rect x="470" y="50" width="280" height="250" rx="12" fill="none" stroke="#374151" stroke-width="2"/>
  
  <!-- Right label -->
  <text x="485" y="80" font-size="14" font-weight="600" fill="#60a5fa">DeliveryHub</text>
  <text x="485" y="100" font-size="18" font-weight="700" fill="#f9fafb">Sharing platform</text>
  
  <!-- Right icon -->
  <g transform="translate(610, 170)">
    <circle cx="-20" cy="-15" r="18" fill="#3b82f6"/>
    <circle cx="20" cy="-15" r="18" fill="#3b82f6"/>
    <circle cx="0" cy="15" r="18" fill="#2563eb"/>
    <text x="0" y="22" font-size="20" font-weight="bold" fill="#f9fafb" text-anchor="middle">D</text>
  </g>

  <text x="610" y="268" font-size="16" font-weight="700" fill="#60a5fa" text-anchor="middle">deliveryhub</text>
</svg>
