<svg viewBox="0 0 800 350" xmlns="http://www.w3.org/2000/svg">
  <!-- Left box: Provider Data source -->
  <rect x="50" y="50" width="280" height="250" rx="12" fill="none" stroke="#e0e0e0" stroke-width="2"/>
  
  <!-- Left label -->
  <text x="65" y="80" font-size="14" font-weight="600" fill="#999">Provider</text>
  <text x="65" y="100" font-size="18" font-weight="700" fill="#333">Data source</text>
  
  <!-- Left icon (hexagon with chart) -->
  <g transform="translate(190, 160)">
    <!-- Hexagon -->
    <polygon points="0,-50 43,-25 43,25 0,50 -43,25 -43,-25" fill="#2563eb" stroke="none"/>
    <!-- Chart icon inside -->
    <rect x="-25" y="-15" width="8" height="25" fill="white"/>
    <rect x="-8" y="-5" width="8" height="15" fill="white"/>
    <rect x="9" y="-25" width="8" height="35" fill="white"/>
  </g>
  
  <!-- Center arrow and label -->
  <g>
    <!-- Arrow line -->
    <line x1="340" y1="175" x2="440" y2="175" stroke="#ff9500" stroke-width="3" marker-end="url(#arrowhead)"/>
    <!-- Label -->
    <rect x="360" y="145" width="160" height="40" rx="6" fill="white" stroke="#ff9500" stroke-width="2"/>
    <text x="440" y="173" font-size="14" font-weight="600" fill="#333" text-anchor="middle">Grant read access</text>
  </g>
  
  <!-- Arrow marker definition -->
  <defs>
    <marker id="arrowhead" markerWidth="10" markerHeight="10" refX="9" refY="3" orient="auto">
      <polygon points="0 0, 10 3, 0 6" fill="#ff9500"/>
    </marker>
  </defs>
  
  <!-- Right box: DeliveryHub -->
  <rect x="470" y="50" width="280" height="250" rx="12" fill="none" stroke="#e0e0e0" stroke-width="2"/>
  
  <!-- Right label -->
  <text x="485" y="80" font-size="14" font-weight="600" fill="#0066ff">DeliveryHub</text>
  <text x="485" y="100" font-size="18" font-weight="700" fill="#333">Sharing platform</text>
  
  <!-- Right icon/logo placeholder -->
  <g transform="translate(610, 160)">
    <!-- DHH logo-like shape -->
    <circle cx="-20" cy="-15" r="18" fill="#2563eb"/>
    <circle cx="20" cy="-15" r="18" fill="#2563eb"/>
    <circle cx="0" cy="15" r="18" fill="#0066ff"/>
    <text x="0" y="22" font-size="20" font-weight="bold" fill="white" text-anchor="middle">D</text>
  </g>
  
  <!-- DeliveryHub text branding -->
  <text x="610" y="270" font-size="20" font-weight="700" fill="#0066ff" text-anchor="middle">deliveryhub</text>
</svg>