<svg xmlns="http://www.w3.org/2000/svg" width="806" height="804"><path fill="#807E8E" d="m398.375-.25 3.248.01C417.165-.189 432.56.061 448 2l3.25.39C498.084 8.145 543.57 20.247 586 41l2.834 1.374A1355 1355 0 0 1 597 46.375l2.409 1.19c3.722 1.872 7.133 3.808 10.529 6.224 7.27 4.62 16.465 2.025 24.5.773 7.362-1.063 14.7-1.96 22.125-2.437l2.359-.185c4.574-.248 7.497.096 11.078 3.06v2l3.756-.034q17.524-.152 35.048-.225c6.007-.026 12.013-.062 18.019-.118a2436 2436 0 0 1 17.39-.097q3.316-.015 6.633-.055a745 745 0 0 1 9.293-.039l2.768-.054c4.339.035 7.2.251 10.647 3.032 3.778 4 3.58 6.75 3.544 12.014l-.005 2.348c-.005 2.612-.018 5.223-.03 7.835q-.008 2.802-.014 5.604-.014 6.052-.033 12.103a6053 6053 0 0 0-.017 22.495l.005 10.01c.007 13.79.002 27.579-.055 41.368a4402 4402 0 0 0-.024 30.162c.013 5.31.01 10.62-.031 15.93-.167 22.426.077 41.916 8.979 62.826 2.058 5.287 3.413 10.78 4.814 16.27l.973 3.781c4.283 17.785 8.052 35.595 10.59 53.719l.458 3.267c.476 3.615.898 7.233 1.292 10.858l.264 2.386c1.798 16.706 2.097 33.322 2.048 50.114l-.005 4.01c-.037 19.341-.475 38.333-3.307 57.49l-.504 3.633c-6.58 46.74-19.803 104.751-48.937 142.633-2.113 3.706-1.379 5.593-.559 9.734.718 2.31 1.504 4.601 2.344 6.871l.73 1.997a1154 1154 0 0 0 1.587 4.305c1.47 3.97 2.919 7.948 4.37 11.925l.949 2.594c4.089 11.198 8.05 22.442 12.02 33.683l3.226 9.125 2.018 5.721c1.43 4.057 2.87 8.108 4.359 12.144l.719 1.96c.61 1.66 1.229 3.318 1.847 4.975 1.156 3.756 1.037 6.793.831 10.7 1.07 5.735 2.903 8 7 12 5.917 9.8 11.371 25.33 10.813 36.875-.81 3.112-1.21 4.323-3.813 6.125-4.64 1.546-9.16 1.611-14 1-7.032-4.788-9.675-14.157-11.75-22.062l-.661-2.491c-1.624-6.572-1.972-12.473-1.57-19.248-.021-3.56-.572-5.951-2.019-9.199l-1.86-1.738c-3.365-3.556-4.636-7.929-6.39-12.45-4.166-10.356-8.788-20.412-13.687-30.437l-1.038-2.123A2973 2973 0 0 0 742 688l-.912-1.84A3040 3040 0 0 0 731 666h-2a127 127 0 0 0-4.937 5.75c-13.487 16.295-13.487 16.295-19.36 21.148-2.487 3.069-2.13 5.252-2.015 9.164l.046 2.188c.064 2.584.163 5.166.266 7.75l.238 6.598q.193 5.274.403 10.548c.328 8.292.484 16.556.359 24.854h-3c.316 4.977.743 8.847 3 13.313 2.628 5.369 2.8 10.788 3 16.687-3.305 2.203-4.277 2.246-8.114 2.227h-3.154l-3.4-.032-3.485-.008c-3.678-.011-7.356-.037-11.034-.062q-3.738-.016-7.475-.027-9.169-.034-18.338-.098l-2-4c8.068-11.05 22.497-15.748 35-20h2a295 295 0 0 0-.875-3.937l-.492-2.215c-.463-2.055-.463-2.055-2.633-2.848a114 114 0 0 1-1.508-7.973l-.395-2.417c-.416-2.556-.819-5.114-1.222-7.673l-.84-5.189Q678.005 723.376 677 717l-1.35 1.003C613.997 763.596 530.24 800.76 452 798l-.375 1.875C451 802 451 802 449 804c-3.5-.187-3.5-.187-7-1l-2-3c-2.898-.244-5.582-.299-8.477-.223l-2.62.03q-2.8.033-5.6.082c-4.935.082-9.87.104-14.807.123l-2.996.012c-13.552.023-27.002-.805-40.5-2.024l-3.842-.342c-36.543-3.424-72.751-10.704-108.649-18.182A744 744 0 0 0 240 777l-3.06-.622c-4.504-.742-4.504-.742-8.784.5-1.804 1.338-3.331 2.772-4.906 4.372q-1.78 1.664-3.566 3.32l-1.821 1.724c-3.044 2.788-6.287 5.306-9.55 7.831l-1.783 1.396c-7.01 5.466-7.01 5.466-10.483 5.553C193 800 193 800 190.953 796.832q-.886-1.995-1.703-4.02l-.879-2.001c-1.674-3.871-3.095-7.79-4.371-11.811h-4c-.38 1.59-.38 1.59-.77 3.21l-1.042 4.165-.502 2.117c-1.346 5.281-1.346 5.281-4.686 7.508-5.556-.556-5.556-.556-7-2l-2 3c-3.258.293-3.258.293-7.125.188l-3.883-.083L150 797l-1 3c-2.812.625-2.812.625-6 1l-3-2v-2l-2.048.063c-3.067.084-6.134.136-9.202.187l-3.223.102-3.105.039-2.857.063c-3.324-.588-4.506-1.836-6.565-4.454-.059-2.262-.059-2.262.563-4.687l.566-2.387c.482-1.62.982-3.234 1.555-4.824 3.034-8.489 3.982-17.108 4.965-26.03q.351-3.013.788-6.013c1.998-10.733 1.998-10.733-.567-20.896-3.396-3.63-7.53-5.83-11.87-8.163a69 69 0 0 1-3.84-3.11l-1.572-1.327-1.525-1.313-1.706-1.462C93.565 706.876 87.277 700.45 81 694l-.078 2.23c-.466 8.01-.466 8.01-2.797 11.895C69.553 715.689 54.332 711 45 711v77h28v5H9v-5h28v-77H6c-5-3-5-3-6-5-1.069-12.047-1.069-12.047 1.813-17.312C6.414 686.25 10.854 686.099 16 686l-2.75-1.937c-4.39-3.693-6.687-8.428-7.562-14.083-.073-2.363.09-4.624.312-6.98l.25-3.316c1.776-18.043 6.757-35.182 14.762-51.44 2.208-4.783 3.523-8.044 2-13.217Q22.037 592.501 21 590a355 355 0 0 1-1.797-5.54l-.956-2.956C11.58 560.578 6.854 539.23 3.687 517.5l-.446-3.062c-2.75-20.41-3.619-40.797-3.553-61.375l.005-3.636C-.257 430.114.417 411.157 3 392l.264-1.983c5.754-42.924 5.754-42.924 11.743-61.067 3.84-12.054 3.547-23.941 3.491-36.491q.006-3.681.017-7.362.018-7.884.001-15.768c-.015-7.607-.005-15.214.012-22.82a16697 16697 0 0 0 .036-39.302v-8.964a55139 55139 0 0 1 .003-26.966q.007-18.486.044-36.97.022-11.383.006-22.766-.01-8.711.01-17.423.004-3.57-.008-7.142c-.01-3.248-.003-6.496.01-9.744l-.024-2.855c.051-6.367.69-11.382 5.127-16.295 3.262-1.556 5.947-1.427 9.555-1.393l2.23.007c2.468.012 4.935.045 7.403.078q2.655.018 5.308.032 5.723.035 11.444.089c6.05.055 12.101.076 18.152.09L84.05 57l3.15.007c14.083.037 28.166.1 42.25.236q14.251.138 28.504.127a927 927 0 0 1 15.057.098c29.623.817 29.623.817 55.13-12.952 2.765-2.255 5.707-3.812 8.867-5.461l3.065-1.617 3.052-1.563 3.393-1.744C294.177 10.074 345.234-.526 398.375-.25M141 742a5211 5211 0 0 0-3.418 13.452q-.579 2.288-1.164 4.574-.84 3.29-1.668 6.583l-.53 2.059c-.816 3.262-1.22 5.937-1.22 9.332h-3v4q2.688.039 5.375.063l3.023.035c2.586.082 2.586.082 4.602-1.098 1.449-4.133 2.51-8.384 3.624-12.618.559-2.113 1.137-4.22 1.718-6.327q.54-2.02 1.076-4.04l.993-3.71c.577-3.237.596-5.2-.411-8.305-2.512-2.197-5.607-4-9-4m19 16q-1.507 5.654-3 11.313l-.867 3.248-.82 3.115-.762 2.872c-.66 2.521-.66 2.521-.551 5.452 1.95 1.406 3.96 2.73 6 4 1.678 1.32 3.346 2.65 5 4 .87-3.58 1.718-7.164 2.563-10.75l.748-3.078.693-2.969c.215-.9.43-1.801.65-2.73.511-3.655-.054-5.649-2.213-8.614l-1.879-2.109-1.87-2.14c-1.544-1.84-1.544-1.84-3.692-1.61m30 5c1.192 3.775 2.525 7.49 3.938 11.188l.964 2.542c1.1 2.275 2.21 3.618 4.098 5.27l1.574-1.39c3.093-2.722 6.162-5.406 9.426-7.923l2-1.687v-2q-4.935-1.505-9.875-3l-2.84-.867-2.715-.82-2.507-.762c-2.03-.637-2.03-.637-4.063-.551"/><path fill="#282828" d="M670 57q19.403-.176 38.804-.26c6.007-.025 12.013-.06 18.019-.117a2436 2436 0 0 1 17.39-.097q3.316-.015 6.633-.055a745 745 0 0 1 9.293-.039l2.768-.054c4.339.035 7.2.251 10.647 3.032 3.778 4 3.58 6.75 3.544 12.014l-.005 2.348c-.005 2.612-.018 5.223-.03 7.835q-.008 2.802-.014 5.604-.014 6.052-.033 12.103a6053 6053 0 0 0-.017 22.495l.005 10.01c.007 13.79.002 27.579-.055 41.368a4402 4402 0 0 0-.024 30.162c.013 5.31.01 10.62-.031 15.93-.167 22.426.077 41.916 8.979 62.826 2.058 5.287 3.413 10.78 4.814 16.27l.973 3.781c4.283 17.785 8.052 35.595 10.59 53.719l.458 3.267c.476 3.615.898 7.233 1.292 10.858l.264 2.386c1.798 16.706 2.097 33.322 2.048 50.114l-.005 4.01c-.037 19.341-.475 38.333-3.307 57.49l-.504 3.633c-6.58 46.74-19.803 104.751-48.937 142.633-2.113 3.706-1.379 5.593-.559 9.734.718 2.31 1.504 4.601 2.344 6.871l.73 1.997a1154 1154 0 0 0 1.587 4.305c1.47 3.97 2.919 7.948 4.37 11.925l.949 2.594c4.089 11.198 8.05 22.442 12.02 33.683l3.226 9.125 2.018 5.721c1.43 4.057 2.87 8.108 4.359 12.144l.719 1.96c.61 1.66 1.229 3.318 1.847 4.975 1.156 3.756 1.037 6.793.831 10.7 1.07 5.735 2.903 8 7 12 5.917 9.8 11.371 25.33 10.813 36.875-.81 3.112-1.21 4.323-3.813 6.125-4.64 1.546-9.16 1.611-14 1-7.032-4.788-9.675-14.157-11.75-22.062l-.661-2.491c-1.624-6.572-1.972-12.473-1.57-19.248-.021-3.56-.572-5.951-2.019-9.199l-1.86-1.738c-3.365-3.556-4.636-7.929-6.39-12.45-4.166-10.356-8.788-20.412-13.687-30.437l-1.038-2.123A2973 2973 0 0 0 742 688l-.912-1.84A3040 3040 0 0 0 731 666h-2a127 127 0 0 0-4.937 5.75c-13.487 16.295-13.487 16.295-19.36 21.148-2.487 3.069-2.13 5.252-2.015 9.164l.046 2.188c.064 2.584.163 5.166.266 7.75l.238 6.598q.193 5.274.403 10.548c.328 8.292.484 16.556.359 24.854h-3c.316 4.977.743 8.847 3 13.313 2.628 5.369 2.8 10.788 3 16.687-3.305 2.203-4.277 2.246-8.114 2.227h-3.154l-3.4-.032-3.485-.008c-3.678-.011-7.356-.037-11.034-.062q-3.738-.016-7.475-.027-9.169-.034-18.338-.098l-2-4c8.068-11.05 22.497-15.748 35-20h2a295 295 0 0 0-.875-3.937l-.492-2.215c-.463-2.055-.463-2.055-2.633-2.848a114 114 0 0 1-1.508-7.973l-.395-2.417c-.416-2.556-.819-5.114-1.222-7.673l-.84-5.189Q678.005 723.376 677 717l-1.35 1.003C613.997 763.596 530.24 800.76 452 798l-.375 1.875C451 802 451 802 449 804c-3.5-.187-3.5-.187-7-1l-2-3c-2.898-.244-5.582-.299-8.477-.223l-2.62.03q-2.8.033-5.6.082c-4.935.082-9.87.104-14.807.123l-2.996.012c-13.552.023-27.002-.805-40.5-2.024l-3.842-.342c-36.543-3.424-72.751-10.704-108.649-18.182A744 744 0 0 0 240 777l-3.06-.622c-4.504-.742-4.504-.742-8.784.5-1.804 1.338-3.331 2.772-4.906 4.372q-1.78 1.664-3.566 3.32l-1.821 1.724c-3.044 2.788-6.287 5.306-9.55 7.831l-1.783 1.396c-7.01 5.466-7.01 5.466-10.483 5.553C193 800 193 800 190.953 796.832q-.886-1.995-1.703-4.02l-.879-2.001c-1.674-3.871-3.095-7.79-4.371-11.811h-4c-.38 1.59-.38 1.59-.77 3.21l-1.042 4.165-.502 2.117c-1.346 5.281-1.346 5.281-4.686 7.508-5.556-.556-5.556-.556-7-2l-2 3c-3.258.293-3.258.293-7.125.188l-3.883-.083L150 797l-1 3c-2.812.625-2.812.625-6 1l-3-2v-2l-2.048.063c-3.067.084-6.134.136-9.202.187l-3.223.102-3.105.039-2.857.063c-3.324-.588-4.506-1.836-6.565-4.454-.059-2.262-.059-2.262.563-4.687l.566-2.387c.482-1.62.982-3.234 1.555-4.824 3.034-8.489 3.982-17.108 4.965-26.03q.351-3.013.788-6.013c1.998-10.733 1.998-10.733-.567-20.896-3.396-3.63-7.53-5.83-11.87-8.163a69 69 0 0 1-3.84-3.11l-1.572-1.327-1.525-1.313-1.706-1.462C93.565 706.876 87.277 700.45 81 694l-.078 2.23c-.466 8.01-.466 8.01-2.797 11.895C69.553 715.689 54.332 711 45 711v77h28v5H9v-5h28v-77H6c-5-3-5-3-6-5-1.069-12.047-1.069-12.047 1.813-17.312C6.414 686.25 10.854 686.099 16 686l-2.75-1.937c-4.482-3.77-6.788-8.613-7.562-14.399C5.554 664.78 6.43 660.608 8 656l2.324.219c7.46.624 14.88.915 22.364.968l2.586.04c11.002.318 11.002.318 20.729-3.853 1.839-2.12 3.424-4.3 4.997-6.624q1.785-2.463 3.574-4.926l1.748-2.475c2.391-3.347 4.929-6.569 7.49-9.787q1.335-1.692 2.668-3.386c5.333-6.734 10.758-13.381 16.395-19.864l2.18-2.511C97 602 97 602 100 602c1.98 1.941 1.98 1.941 4.188 4.563C116.312 620.378 132.108 629.527 150 634v2l1.547-.493c3.268-.675 6.362-.626 9.7-.62l2.189-.001c2.38 0 4.761.009 7.142.016l4.96.005q6.52.006 13.04.024 6.656.014 13.313.02 13.055.016 26.109.049l.9-2.775c1.28-3.75 2.915-7.276 4.627-10.842l1.046-2.202q1.107-2.327 2.217-4.652c1.93-4.044 3.847-8.093 5.765-12.142l1.153-2.433a2489 2489 0 0 0 9.855-21.016l1.388-2.967 1.24-2.694c.53-1.14.53-1.14 1.069-2.305.916-2.089.916-2.089.74-4.972l-5-1-.777 2.52c-1.354 3.852-3.02 7.493-4.786 11.168l-1.054 2.218a2861 2861 0 0 1-2.23 4.68c-1.933 4.048-3.856 8.1-5.778 12.152l-1.147 2.419a1127 1127 0 0 0-10.447 22.759l-1.094 2.44-.925 2.082C224 629 224 629 223 630c-3.967.316-7.938.357-11.916.405a309 309 0 0 0-5.945.171c-7.72.09-12.72-.555-18.956-5.273-5.025-3-11.07-.823-16.406.49a218 218 0 0 0-6.148 1.684c-5.39 1.073-8.841-1.615-13.254-4.477-.62-.4-1.24-.802-1.877-1.215-5.668-3.752-10.626-8.048-15.498-12.785l-2.18-1.992c-8.854-8.32-13.285-18.869-18.007-29.883q-1.546-3.593-3.106-7.18l-1.36-3.171c-1.235-2.543-2.648-4.535-4.347-6.774v-2l164-1c3.31-9.794 3.31-9.794 5.746-19.637l.85-3.998q.637-3.048 1.256-6.1c2.522-12.373 5.584-21.697 16.148-29.265 4.131-2.164 8.56-3.166 13.242-2.848 2.353.158 4.43.241 6.758-.152 2.308-2.669 2.308-2.669 4-6 5.417-5.294 10.941-8.047 18.5-8.437 4.724.163 8.663 1.686 12.5 4.437 2.09 3.134 2.274 3.975 2.25 7.563l.016 2.378C349 497 349 497 347 499l-2-1c-4.175-.473-6.326-.416-9.937 1.813-3.425 5.291-2.65 10.993-1.54 17.03L334 519a56.5 56.5 0 0 1-7-4c-2.153.308-2.153.308-4 1 .12 2.365.12 2.365 1 5a263 263 0 0 0 5 4c1.438 2.563 1.438 2.563 2 5-2 3-2 3-5.125 3.625-5.468-.882-8.236-3.583-11.875-7.625-2.42-3.63-3.253-6.977-4.07-11.2l-.532-2.725L309 510l-.396 2.472q-.75 4.631-1.52 9.259c-.325 1.967-.64 3.937-.955 5.906-1.717 10.252-4.046 20.213-9.129 29.363l8 1c-3.049 3.659-6.09 7.116-9.562 10.375-14.088 14.007-24.57 31.307-31.563 49.813l-.896 2.356-.8 2.249-.695 1.954c-.729 3.01-.729 3.01-.484 9.253l181 1 3-9q1.058-2.816 2.177-5.608l1.212-3.034 1.279-3.182 2.705-6.803q2.115-5.316 4.247-10.625a2549 2549 0 0 0 4.11-10.322l1.298-3.201 1.184-3.005 1.049-2.623c.843-2.962.867-5.533.739-8.597a4554 4554 0 0 0-29.025-.26c-4.494-.025-8.986-.06-13.479-.117-4.338-.055-8.675-.084-13.013-.097q-2.48-.015-4.959-.055a417 417 0 0 0-6.958-.039l-3.997-.033c-4.692.79-6.235 2.263-9.569 5.601-1.845 2.797-1.845 2.797-3.227 5.918l-1.67 3.517-1.728 3.753a2252 2252 0 0 1-1.817 3.856 1445 1445 0 0 0-4.638 9.964q-1.362 2.95-2.734 5.895A3375 3375 0 0 0 358 629c-2.925-1.311-4.145-2.169-6.312-4.687-2.485-2.622-2.485-2.622-5.75-2.438-4.67 1.033-9.03 3.196-13.364 5.164L330 628l-2-1 1.434-1.386c18.094-16.036 18.094-16.036 26.128-37.739-.076-9.004-3.38-16.793-6.806-25.012-.648-1.597-1.211-3.228-1.756-4.863h306l-2-15 7.023-.148c23.053-.506 23.053-.506 45.977-2.852 2.666-.342 5.333-.67 8-1 1.34 2.789 2.67 5.581 4 8.375l1.156 2.406 1.094 2.305 1.016 2.126C720 556 720 556 720 558c4.064-.023 8.125-.1 12.188-.187l3.486-.018 3.369-.088 3.094-.048c4.118-.948 5.469-2.163 7.863-5.659.651-3.69.53-7.303.426-11.04l-.022-6.636q-.058-5.204-.16-10.407c-.374-21.896-.374-21.896 4.62-28.624l2.13-2.187c9.269-9.73 9.522-25.69 9.256-38.29-.559-14.117-4.862-37.428-15.25-47.816a57 57 0 0 1-.125-4.06l-.007-2.668.007-2.963-.004-3.123c-.004-3.482 0-6.963.003-10.445l-.006-7.454q-.006-7.002-.006-14.005a15066 15066 0 0 0-.037-31.854l-.012-6.562q-.023-12.38-.041-24.76l-.003-2.287c-.018-12.228-.02-24.456-.02-36.684q.002-18.82-.05-37.64-.032-11.614-.012-23.228c.01-5.933-.007-11.867-.033-17.8q-.01-3.654.006-7.308c.014-3.32-.003-6.64-.027-9.96.01-.969.022-1.938.034-2.936-.067-4.618-.15-6.604-3.082-10.338-4.529-3.372-8.231-3.095-13.716-3.13l-2.868-.03q-4.707-.047-9.415-.081l-6.516-.063q-8.586-.083-17.173-.153-8.757-.077-17.514-.161Q663.19 147.145 646 147l1.435-4.33.807-2.434c.834-2.46 1.757-4.87 2.738-7.275 4.481-11.264 8.26-22.61 11.332-34.336l.948-3.534c3.173-12.53 4.896-25.31 6.74-38.091M141 742a5211 5211 0 0 0-3.418 13.452q-.579 2.288-1.164 4.574-.84 3.29-1.668 6.583l-.53 2.059c-.816 3.262-1.22 5.937-1.22 9.332h-3v4q2.688.039 5.375.063l3.023.035c2.586.082 2.586.082 4.602-1.098 1.449-4.133 2.51-8.384 3.624-12.618.559-2.113 1.137-4.22 1.718-6.327q.54-2.02 1.076-4.04l.993-3.71c.577-3.237.596-5.2-.411-8.305-2.512-2.197-5.607-4-9-4m19 16q-1.507 5.654-3 11.313l-.867 3.248-.82 3.115-.762 2.872c-.66 2.521-.66 2.521-.551 5.452 1.95 1.406 3.96 2.73 6 4 1.678 1.32 3.346 2.65 5 4 .87-3.58 1.718-7.164 2.563-10.75l.748-3.078.693-2.969c.215-.9.43-1.801.65-2.73.511-3.655-.054-5.649-2.213-8.614l-1.879-2.109-1.87-2.14c-1.544-1.84-1.544-1.84-3.692-1.61m30 5c1.192 3.775 2.525 7.49 3.938 11.188l.964 2.542c1.1 2.275 2.21 3.618 4.098 5.27l1.574-1.39c3.093-2.722 6.162-5.406 9.426-7.923l2-1.687v-2q-4.935-1.505-9.875-3l-2.84-.867-2.715-.82-2.507-.762c-2.03-.637-2.03-.637-4.063-.551"/><path fill="#AFAFAF" d="M653.262 170.207q3.064.046 6.13.07c5.344.063 10.68.234 16.021.429 5.46.178 10.92.246 16.382.327 7.947.135 15.892.305 23.837.568l2.538.075c5.712.206 5.712.206 6.83 1.324.097 2.202.122 4.408.12 6.612l.003 2.119c.002 2.36-.004 4.72-.01 7.08l.001 5.054q-.001 6.884-.013 13.766c-.006 4.79-.006 9.58-.008 14.37q-.005 13.615-.021 27.231-.015 15.498-.022 30.994-.016 31.887-.05 63.774l-4 1 .5-2c.622-3.731.564-7.219.5-11l-3.375-.562L715 330a192 192 0 0 1-2-7c-5.401-6.987-14.367-9.371-22.687-10.937-4.67-.936-8.676-2.971-12.313-6.063v-2c-4.21.81-6.482 1.443-9.437 4.625-2.03 4.385-2.173 6.574-1.563 11.375 2.885 5.907 9.165 7.811 15 10a293 293 0 0 0 10.692 3.3c5.105 1.497 5.105 1.497 7.308 3.7-.26 2.343-.6 4.677-1 7v4l1.188-2.5L702 343c2.625-.375 2.625-.375 5 0 1 1 1 1 1.375 3.688-.518 4.579-2.145 6.082-5.375 9.312h-2v9c.626-.01 1.251-.02 1.896-.032 2.826-.041 5.653-.067 8.479-.093l2.984-.05 2.852-.02 2.634-.032C722 365 722 365 724 367c.227 2.614.227 2.614.195 5.883l-.02 3.535-.05 3.707-.027 3.73q-.036 4.573-.098 9.145c-6.497-.587-12.655-1.465-19-3l1 5c-7.072 3.745-12.884 5.573-20.719 3.164-6.664-2.547-6.664-2.547-9.281-5.164-.243-2.015-.243-2.015-.23-4.465l.005-2.674.038-2.798.001-2.788c.045-6.853.045-6.853 1.186-10.275l-2.812-.25C671 369 671 369 669.316 367.523c-1.992-3.82-1.673-7.41-1.566-11.648l.016-2.496c.08-6.07.08-6.07 1.234-8.379l-132 1c4.448 8.26 8.12 15.046 14 22l2.316 2.934c2.672 3.199 5.674 5.694 8.996 8.191l1.72 1.31c4.145 3.097 8.228 5.52 12.968 7.565-1.5 3.88-3.215 7.618-5 11.375-2.093 4.533-4.02 8.728-5 13.625l-.875 3.5c1.11 4.44 2.348 4.858 6.188 7.188 21.71 11.336 42.91 11.152 66.687 9.312l-.027 1.658c-.388 25.103-.735 49.693 3.57 74.494.685 4.264 1.097 8.545 1.457 12.848 16.416 1.112 16.416 1.112 30.5-5.625l2.387-2.453C679 512 679 512 681.207 511.453c3.812.311 6.21 1.722 8.918 4.235L693 518c2.982-.239 2.982-.239 6-2l2.199-.888c4.815-2.167 4.815-2.167 7.842-6.304.62-2.73.983-5.397 1.271-8.183q.435-3.117.872-6.234l.405-3.217c.641-4.954 1.446-9.876 2.286-14.799l.477-2.836c1.776-10.065 4.629-19.787 7.648-29.539h2l1 50h3c1.507 2.788 3.004 5.581 4.5 8.375l1.3 2.406 1.231 2.305 1.143 2.126C737 511 737 511 737 513l2.3-1.68 3.013-2.195 2.988-2.18A190 190 0 0 1 751 503c.101 6.887.171 13.773.22 20.66q.03 3.514.082 7.028c.048 3.368.071 6.736.089 10.105l.062 3.17c.002 7.285.002 7.285-2.352 11.175-3.375 2.992-5.33 2.982-9.765 2.96l-3.399-.01-3.562-.025-3.586-.014q-4.395-.018-8.789-.049c-1.34-2.789-2.67-5.581-4-8.375l-1.156-2.406-1.094-2.305-1.016-2.126C712 541 712 541 712 539l-2.64.621-3.61.817-3.516.808c-11.361 2.215-22.965 1.879-34.484 1.817q-2.447-.009-4.895-.014-5.927-.017-11.855-.049l.438 2.012.562 2.676.563 2.636C653 553 653 553 653 558H347l4 8c4.447 10.04 7.076 19.66 4.36 30.574-3.686 8.848-11.728 15.724-18.36 22.426l-2.691 2.738A421 421 0 0 1 329 627l3.324-1.348 4.363-1.715 2.186-.892c6.988-2.712 6.988-2.712 11.127-1.045 2.238 1.629 2.238 1.629 4.313 3.563l2.113 1.94L358 629l1.016-3.488c2.516-7.538 6.232-14.584 9.734-21.7l2.094-4.29q2.062-4.226 4.15-8.438a369 369 0 0 0 3.871-8.079l.909-1.915a687 687 0 0 0 2.399-5.13c2.105-3.41 4.417-5.882 7.827-7.96 3.473-.621 3.473-.621 7.335-.615l2.145-.017c2.324-.012 4.646.012 6.97.038q2.43.003 4.862 0 5.083.004 10.165.052c4.345.04 8.688.044 13.033.037 3.344-.004 6.687.009 10.03.026q2.403.01 4.807.009c2.236.002 4.47.023 6.706.05l3.855.026c3.092.394 3.092.394 5.027 1.74 1.435 2.23 1.189 3.877.693 6.42-1.435 5.103-3.505 9.976-5.503 14.879l-1.468 3.654a2897 2897 0 0 1-3.866 9.561c-1.317 3.25-2.623 6.503-3.932 9.755a6599 6599 0 0 1-5.742 14.22l-1.168 2.884A68 68 0 0 1 442 635q-35.373.035-70.747.052-16.422.007-32.846.023-14.31.015-28.618.02-7.581 0-15.163.01-7.127.01-14.254.008-2.625 0-5.248.006-3.566.006-7.132.001l-2.126.01c-4.752-.016-4.752-.016-5.866-1.13-.592-6.283 1.15-11.133 3.438-16.937l1.092-2.8c8.704-21.69 22.792-39.068 39.47-55.263l-8-1 1.207-2.719c4.007-9.317 6.234-18.271 7.793-28.281q.574-3.54 1.173-7.075.382-2.256.738-4.518c.865-5.183.865-5.183 3.089-7.407l.297 2.379c1.14 8.016 2.522 13.805 8.515 19.558 3.731 2.414 5.829 2.499 10.188 2.063.955-1.725.955-1.725 1-4-2.134-2.43-4.353-4.482-6.875-6.5-1.125-1.5-1.125-1.5-.812-4.187L323 515c1.766-.652 1.766-.652 4-1 1.922.996 1.922.996 3.75 2.438l1.86 1.433L334 519l-.977-2.156c-1.647-4.579-1.629-9.042-1.023-13.844 1.801-3.002 2.903-4.452 6-6q3.5-.062 7 0h3c.586-6.048.586-6.048-1.687-11.437-5.283-3.57-10.029-4.394-16.313-3.563-4.708 1.444-8.902 3.268-13 6v-94c35-12 35-12 48.438-16.375 12.988-3.866 12.988-3.866 24.113-11.19 3.8-2.227 7.484-1.804 11.808-1.728l2.74.013c2.885.017 5.768.054 8.651.092q2.936.024 5.871.042 7.19.051 14.379.146a542 542 0 0 1-4.383 22.145q-.675 3.117-1.347 6.236-1.049 4.845-2.107 9.69c-.688 3.148-1.367 6.298-2.046 9.449l-.644 2.916c-2.011 8.372-2.011 8.372.027 16.439L424 434c4.818-2.6 8.955-5.43 13.063-9.062a324 324 0 0 1 13.875-11.375c5.48-4.255 10.778-8.683 16.023-13.223a433 433 0 0 1 10.539-8.84 631 631 0 0 0 12.625-10.562l1.798-1.54a460 460 0 0 0 12.405-11.07C506 367 506 367 508 367v-2h25l-1-4-1.836.176c-7.246.39-11.985-1.495-18.164-5.176l-7.46 6.312q-4.46 3.77-8.911 7.551A1279 1279 0 0 1 475 387q-2.782 2.28-5.562 4.563A1465 1465 0 0 1 454 404l-2-2a385 385 0 0 1 18.082-15.617c3.172-2.59 6.298-5.23 9.418-7.883a912 912 0 0 1 14.71-12.219c4.961-4.057 9.874-8.171 14.79-12.281l-.96-2.105c-1.134-3.157-1.445-5.868-1.665-9.207l-.227-3.239L506 337l-2.555-.805-3.32-1.07-3.305-1.055C494 333 494 333 492 331v-3c6.335.595 12.061 2.042 18.125 3.938l2.629.802A471 471 0 0 1 526 337c-1.934-14.17-8.877-27.23-15-40h3c4.376 8.343 8.472 16.733 11.938 25.5l.89 2.207c1.847 4.79 2.717 9.178 3.172 14.293h3c1.423-17.869-9.67-34.485-19-49 3.397-3.527 6.897-6.564 10.813-9.5 7.258-5.497 14.31-11.235 21.354-17.003a959 959 0 0 1 4.907-3.974c5.637-4.55 11.047-9.288 16.38-14.191a311 311 0 0 1 6.484-5.77C586.922 228.249 599.36 216.598 610 203l2.36-2.95 2.452-3.113 2.435-3.08c2.022-2.692 3.615-5.408 5.137-8.409 7.748-14.635 15.028-15.988 30.878-15.241"/><path fill="#AFAFAF" d="m72.404 171.737 2.751.016 2.911-.008c3.24-.005 6.478.003 9.717.012l6.942-.006c6.3-.005 12.599.003 18.898.013 6.578.009 13.156.007 19.734.007q16.57.002 33.142.023 17.066.021 34.133.02h4.243q18.423 0 36.845.013 7.857.006 15.714.006 9.243.002 18.485.017 3.403.004 6.805.004 4.624 0 9.248.012l2.758-.004c6.156.024 6.156.024 7.27 1.138.75 7.644.76 15.384.911 23.062.072 3.553.173 7.099.351 10.648 1.27 26.005 1.27 26.005-6.72 35.179a98 98 0 0 1-8.49 7.456c-3.267 2.635-6.146 5.635-9.052 8.655l-2.215 2.293-1.722 1.894-1.778 1.918c-1.66 2.065-1.66 2.065-1.285 5.895 3.273 1.953 5.713 2.245 9.5 2.187l2.844-.019c2.541-.068 2.541-.068 4.463-.675 2.696-.606 5.182-.588 7.943-.556l2.984.028L302 271q.141 18.844.207 37.688c.021 5.835.05 11.67.095 17.506.044 5.647.067 11.295.078 16.942q.01 3.208.043 6.415c.123 12.526-.673 24.109-3.524 36.329-1.115 4.81-1.388 9.445-1.149 14.37l.055 2.328c.045 1.808.116 3.615.195 5.422l4-4v91l-10 4c-12.48 8.863-13.46 19.957-17 35H136l-2-6c-3.74.33-5.07 1.06-8 3.562-3 2.438-3 2.438-5.687 3.063C118 534 118 534 116.527 531.902c-1.712-3.253-3.02-6.51-4.277-9.965l-1.36-3.66c-.847-3.12-1.131-4.375.11-7.277 1.793-2.771 3.287-3.832 6.5-4.59a380 380 0 0 1 5.793-.906c3.382-.63 5.77-1.758 8.707-3.504.456-5.7-.396-8.548-4-13-3.127-1.564-6.58-1.4-10-1-3.861 2.574-3.943 4.61-5 9h-4v2l-2.047-.105-2.703-.083-2.672-.105c-3.087.35-4.396 1.106-6.578 3.293-.506 4.554.006 7.887 2 12l-2 2c-.167 3.583-.167 3.583 0 7 2.969 1.269 2.969 1.269 6 .375 3-.375 3-.375 4.516.762 1.833 2.301 3.002 4.629 4.234 7.3l1.36 2.872c.959 2.898 1.17 3.954-.11 6.691-1.672 1.781-1.672 1.781-3.75 3.5l-2.047 1.719c-2.394 1.935-4.799 3.858-7.203 5.781l-16-12c1-3 1-3 4-5l-1.912-.076q-4.263-.175-8.525-.362l-3.01-.119-2.862-.127-2.65-.11C65 534 65 534 64 533c-.1-1.906-.127-3.816-.129-5.724l-.01-3.792.005-4.22-.007-4.44q-.008-6.132-.004-12.262-.002-6.6-.01-13.2-.012-12.942-.012-25.884 0-10.515-.006-21.028-.014-29.775-.012-59.55v-6.497q-.002-26.085-.023-52.171-.023-26.751-.02-53.502.001-15.031-.014-30.064-.014-12.797-.005-25.593.007-6.536-.005-13.07-.011-5.974.002-11.949.003-2.169-.005-4.338c-.007-1.955-.001-3.91.006-5.866v-3.3c.532-5.444 4.018-4.787 8.653-4.813"/><path fill="#282828" d="m398.375-.25 3.248.01C417.165-.189 432.56.061 448 2l3.25.39C498.084 8.145 543.57 20.247 586 41l2.834 1.374A1355 1355 0 0 1 597 46.375l2.409 1.19a122 122 0 0 1 12.816 7.425c2.504 1.425 4.929 1.797 7.775 2.01-2.818 1.879-4.167 2.403-7.367 3.043l-2.65.554-2.858.59C567.959 69.746 529.775 88.278 499 114l-1.68 1.388c-17.134 13.532-17.134 13.532-31.41 29.687-4.342 4.277-9.871 3.702-15.61 3.721l-4.87-.043q-2.591.008-5.182.026c-4.747.022-9.493.008-14.24-.013-5.118-.015-10.237.004-15.355.018q-13.304.03-26.608.005c-12.826-.022-25.653-.01-38.48.01-20.813.031-41.628.037-62.442.026-20.212-.01-40.425-.012-60.637.002l-3.774.002a203773 203773 0 0 0-58.684.049q-22.68.02-45.36.012-11.43-.003-22.864 0-9.054 0-18.11-.009-5.478-.004-10.958 0-2.52.002-5.038-.004-3.409-.005-6.818.001l-3.834-.002c-3.09-.015-3.09-.015-6.046 1.124-2.14 3.907-2.253 7.386-2.26 11.783l-.012 2.038c-.01 2.258-.006 4.516-.002 6.774l-.016 4.9c-.014 4.492-.016 8.984-.015 13.476-.002 4.844-.015 9.687-.027 14.53-.022 10.59-.03 21.182-.035 31.772q-.006 9.915-.017 19.832a60288 60288 0 0 0-.042 69.132v3.575c-.004 19.13-.03 38.26-.068 57.39q-.057 29.45-.058 58.9c0 11.026-.009 22.052-.038 33.079q-.038 14.079-.017 28.159c.008 4.79.007 9.58-.016 14.371q-.03 6.576.003 13.152.005 2.381-.016 4.762c-.018 2.156-.005 4.31.015 6.466l-.002 3.63c.843 4.436 2.448 6.1 5.623 9.279 2.617 1.119 2.617 1.119 5.313 1.375l2.675.398L54 559c-2.797 3.78-5.61 7.533-8.566 11.191C39.292 577.817 33.935 585.538 29 594q-1.497 2.502-3 5c-2.756-2.373-3.73-4.477-4.832-7.918l-.971-3.013-1.01-3.256-1.061-3.392C9.339 552.906 3.846 523.697 1 494l-.29-2.912c-1.069-12.437-.954-24.927-.96-37.4l-.002-3.712C-.235 430.466.391 411.353 3 392l.264-1.983c5.754-42.924 5.754-42.924 11.743-61.067 3.84-12.054 3.547-23.941 3.491-36.491q.006-3.681.017-7.362.018-7.884.001-15.768c-.015-7.607-.005-15.214.012-22.82a16697 16697 0 0 0 .036-39.302v-8.964a55139 55139 0 0 1 .003-26.966q.007-18.486.044-36.97.022-11.383.006-22.766-.01-8.711.01-17.423.004-3.57-.008-7.142c-.01-3.248-.003-6.496.01-9.744l-.024-2.855c.051-6.367.69-11.382 5.127-16.295 3.262-1.556 5.947-1.427 9.555-1.393l2.23.007c2.468.012 4.935.045 7.403.078q2.655.018 5.308.032 5.723.035 11.444.089c6.05.055 12.101.076 18.152.09L84.05 57l3.15.007c14.083.037 28.166.1 42.25.236q14.251.138 28.504.127a927 927 0 0 1 15.057.098c29.623.817 29.623.817 55.13-12.952 2.765-2.255 5.707-3.812 8.867-5.461l3.065-1.617 3.052-1.563 3.393-1.744C294.177 10.074 345.234-.526 398.375-.25"/><path fill="#3D3D3C" d="M345.371 483.832C347 485 347 485 349 488c.266 2.191.266 2.191.25 4.563l.016 2.378C349 497 349 497 347 499l-2-1c-4.175-.473-6.326-.416-9.937 1.813-3.425 5.291-2.65 10.993-1.54 17.03L334 519a56.5 56.5 0 0 1-7-4c-2.153.308-2.153.308-4 1 .12 2.365.12 2.365 1 5a263 263 0 0 0 5 4c1.438 2.563 1.438 2.563 2 5-2 3-2 3-5.125 3.625-5.468-.882-8.236-3.583-11.875-7.625-2.42-3.63-3.253-6.977-4.07-11.2l-.532-2.725L309 510l-.396 2.472q-.75 4.631-1.52 9.259c-.325 1.967-.64 3.937-.955 5.906-1.717 10.252-4.046 20.213-9.129 29.363l8 1c-3.049 3.659-6.09 7.116-9.562 10.375-14.088 14.007-24.57 31.307-31.563 49.813l-.896 2.356-.8 2.249-.695 1.954c-.729 3.01-.729 3.01-.484 9.253l181 1 1-2v2l1.848-.048c2.78-.062 5.56-.101 8.34-.14l2.908-.076c8.953-.093 8.953-.093 12.904 3.264 2.375 3 2.375 3 4 6l-1 3c-3.12 1.24-6.272 1.121-9.595 1.114h-3.396l-3.65-.016-3.75-.005q-4.92-.007-9.843-.024-5.027-.014-10.055-.02-9.855-.017-19.711-.049l.503 1.737c3.002 10.382 5.978 20.751 8.497 31.263a595 595 0 0 0 6.818 25.339c1.722 5.94 3.277 11.904 4.745 17.911a372 372 0 0 0 5.488 20.076 283 283 0 0 1 3.492 12.74l.797 3.165q.772 3.093 1.517 6.192l.713 2.85.618 2.545c1.365 3.667 3.6 5.04 6.812 7.182 2.34 1.56 4.233 2.84 6 5v2h-9l.656 2.012.844 2.676.844 2.636c.846 3.453 1.39 6.381-.406 9.551-3.14 1.823-5.537.99-8.938.125l-2-3c-2.898-.244-5.582-.299-8.477-.223l-2.62.03q-2.8.033-5.6.082c-4.935.082-9.87.104-14.807.123l-2.996.012c-13.552.023-27.002-.805-40.5-2.024l-3.842-.342c-36.543-3.424-72.751-10.704-108.649-18.182A744 744 0 0 0 240 777l-3.06-.622c-4.504-.742-4.504-.742-8.784.5-1.804 1.338-3.331 2.772-4.906 4.372q-1.78 1.664-3.566 3.32l-1.821 1.724c-3.044 2.788-6.287 5.306-9.55 7.831l-1.783 1.396c-7.01 5.466-7.01 5.466-10.483 5.553C193 800 193 800 190.953 796.832q-.886-1.995-1.703-4.02l-.879-2.001c-1.674-3.871-3.095-7.79-4.371-11.811h-4l-.77 3.21-1.042 4.165-.502 2.117c-1.346 5.281-1.346 5.281-4.686 7.508-5.556-.556-5.556-.556-7-2l-2 3c-3.258.293-3.258.293-7.125.188l-3.883-.083L150 797l-1 3c-2.812.625-2.812.625-6 1l-3-2v-2l-2.048.063c-3.067.084-6.134.136-9.202.187l-3.223.102-3.105.039-2.857.063c-3.324-.588-4.506-1.836-6.565-4.454-.059-2.262-.059-2.262.563-4.687l.566-2.387c.482-1.62.982-3.234 1.555-4.824 3.034-8.489 3.982-17.108 4.965-26.03q.351-3.013.788-6.013c1.998-10.733 1.998-10.733-.567-20.896-3.396-3.63-7.53-5.83-11.87-8.163a69 69 0 0 1-3.84-3.11l-1.572-1.327-1.525-1.313-1.706-1.462C93.565 706.876 87.277 700.45 81 694l-.078 2.23c-.466 8.01-.466 8.01-2.797 11.895C69.553 715.689 54.332 711 45 711v77h28v5H9v-5h28v-77H6c-5-3-5-3-6-5-1.069-12.047-1.069-12.047 1.813-17.312C6.414 686.25 10.854 686.099 16 686c-1.361-.96-1.361-.96-2.75-1.937-4.482-3.77-6.788-8.613-7.562-14.399C5.554 664.78 6.43 660.608 8 656l2.324.219c7.46.624 14.88.915 22.364.968l2.586.04c11.002.318 11.002.318 20.729-3.853 1.839-2.12 3.424-4.3 4.997-6.624q1.785-2.463 3.574-4.926l1.748-2.475c2.391-3.347 4.929-6.569 7.49-9.787q1.335-1.692 2.668-3.386c5.333-6.734 10.758-13.381 16.395-19.864l2.18-2.511C97 602 97 602 100 602c1.98 1.941 1.98 1.941 4.188 4.563C116.312 620.378 132.108 629.527 150 634v2l1.547-.493c3.268-.675 6.362-.626 9.7-.62l2.189-.001c2.38 0 4.761.009 7.142.016l4.96.005q6.52.006 13.04.024 6.657.014 13.313.02 13.055.016 26.109.049l.9-2.775c1.28-3.75 2.915-7.276 4.627-10.842l1.046-2.202q1.107-2.327 2.217-4.652c1.93-4.044 3.847-8.093 5.765-12.142l1.153-2.433a2489 2489 0 0 0 9.855-21.016l1.388-2.967 1.24-2.694 1.069-2.305c.916-2.089.916-2.089.74-4.972l-5-1-.777 2.52c-1.354 3.852-3.02 7.493-4.786 11.168l-1.054 2.218a2861 2861 0 0 1-2.23 4.68c-1.933 4.048-3.856 8.1-5.778 12.152l-1.147 2.419a1127 1127 0 0 0-10.447 22.759l-1.094 2.44-.925 2.082C224 629 224 629 223 630c-3.967.316-7.938.357-11.916.405a309 309 0 0 0-5.945.171c-7.72.09-12.72-.555-18.956-5.273-5.025-3-11.07-.823-16.406.49a218 218 0 0 0-6.148 1.684c-5.39 1.073-8.841-1.615-13.254-4.477-.62-.4-1.24-.802-1.877-1.215-5.668-3.752-10.626-8.048-15.498-12.785l-2.18-1.992c-8.854-8.32-13.285-18.869-18.007-29.883q-1.546-3.593-3.106-7.18l-1.36-3.171c-1.235-2.543-2.648-4.535-4.347-6.774v-2l164-1c3.31-9.794 3.31-9.794 5.746-19.637l.85-3.998q.637-3.048 1.256-6.1c2.522-12.373 5.584-21.697 16.148-29.265 4.131-2.164 8.56-3.166 13.242-2.848 2.353.158 4.43.241 6.758-.152 2.308-2.669 2.308-2.669 4-6 8.469-8.276 18.727-10.78 29.371-5.168M141 742a5211 5211 0 0 0-3.418 13.452q-.579 2.288-1.164 4.574-.84 3.29-1.668 6.583l-.53 2.059c-.816 3.262-1.22 5.937-1.22 9.332h-3v4q2.688.039 5.375.063l3.023.035c2.586.082 2.586.082 4.602-1.098 1.449-4.133 2.51-8.384 3.624-12.618.559-2.113 1.137-4.22 1.718-6.327q.54-2.02 1.076-4.04l.993-3.71c.577-3.237.596-5.2-.411-8.305-2.512-2.197-5.607-4-9-4m19 16q-1.507 5.654-3 11.313l-.867 3.248-.82 3.115-.762 2.872c-.66 2.521-.66 2.521-.551 5.452 1.95 1.406 3.96 2.73 6 4 1.678 1.32 3.346 2.65 5 4 .87-3.58 1.718-7.164 2.563-10.75l.748-3.078.693-2.969c.215-.9.43-1.801.65-2.73.511-3.655-.054-5.649-2.213-8.614l-1.879-2.109-1.87-2.14c-1.544-1.84-1.544-1.84-3.692-1.61m30 5c1.192 3.775 2.525 7.49 3.938 11.188l.964 2.542c1.1 2.275 2.21 3.618 4.098 5.27l1.574-1.39c3.093-2.722 6.162-5.406 9.426-7.923l2-1.687v-2q-4.935-1.505-9.875-3l-2.84-.867-2.715-.82-2.507-.762c-2.03-.637-2.03-.637-4.063-.551"/><path fill="#5F5F5F" d="m50.882 147.754 2.144-.007c2.388-.005 4.777.004 7.166.012q2.583 0 5.168-.005c4.747-.004 9.495.004 14.243.014 5.114.008 10.229.006 15.343.004q13.299-.001 26.598.017c12.819.016 25.637.021 38.456.024q31.194.007 62.388.036 30.308.028 60.615.041l3.772.002 18.734.007q77.745.032 155.491.101-1.418 1.67-2.84 3.336l-1.597 1.876c-2.824 3.23-5.93 6.17-9 9.163-2.463 2.378-2.463 2.378-3.782 4.38-2.002 2.788-3.578 4.88-6.938 5.9-2.56.25-5.044.289-7.616.247l-2.8.038c-2.935.031-5.867.015-8.802-.002q-2.994.02-5.988.048c-4.88.041-9.757.039-14.637.014l3.307 2.042 4.35 2.7c.716.443 1.433.885 2.172 1.34 5.331 3.316 10.357 6.88 15.171 10.918-3.627 5.037-7.49 9.763-11.563 14.438-6.27 7.229-12.08 14.768-17.826 22.418a1593 1593 0 0 1-4.783 6.324c-5.86 7.718-5.86 7.718-11.437 15.64l-1.23 1.82a600 600 0 0 0-3.224 4.883c-3.777 4.829-8.785 5.166-14.578 6.168l-2.548.455q-2.667.475-5.336.94-4.053.71-8.104 1.435-2.6.462-5.2.92l-2.421.43-4.334.756c-3.461.534-6.941.939-10.416 1.373l1 62 8-9c2.128-1.946 4.172-3.746 6.437-5.5l1.777-1.381C347.098 305.937 363.93 295.106 378 297c2.22 2.026 3.793 3.757 5.562 6.125 3.216 4.105 6.367 7.943 10.325 11.36 10.244 8.904 10.244 8.904 11.031 14.812.22 5.402-.61 10.472-1.918 15.703h36l3-9c2.533-2.3 2.533-2.3 5.566-3.957l3.383-1.913 1.787-.96c2.486-1.337 4.936-2.735 7.39-4.13a869 869 0 0 1 3.7-2.09c5.016-2.823 9.849-5.848 14.611-9.075l2.097-1.42c2.162-1.475 4.315-2.963 6.466-4.455l2.616-1.808c10.359-7 10.359-7 20.27-14.598C512 290 512 290 515 290c1.255 1.538 1.255 1.538 2.488 3.7l1.383 2.397 1.441 2.59 1.483 2.619C528.643 313.54 534.518 324.685 534 339c-1.938.563-1.938.563-4 1-1.579-1.579-1.388-3.439-1.688-5.625-2.35-13.297-9.16-25.494-15.312-37.375 0 4.044 1.841 6.825 3.687 10.313 9.745 18.984 9.745 18.984 9.313 29.687-6.537-1.37-12.872-3.088-19.25-5.062-7.291-2.3-7.291-2.3-14.75-3.938.578 1.99.578 1.99 2 4 2.819 1.318 2.819 1.318 6.062 2.188 5.88 1.754 5.88 1.754 6.938 2.812.287 2.971.449 5.942.621 8.922.372 3.02 1.12 5.324 2.379 8.078a385 385 0 0 1-18.082 15.617 615 615 0 0 0-9.418 7.883 826 826 0 0 1-20.629 16.988l-3.059 2.45-2.792 2.214L454 401v2l2.492-2.125c5.12-4.355 10.238-8.701 15.508-12.875 3.878-3.073 7.669-6.233 11.437-9.437C489.232 373.634 495.1 368.8 501 364q3.095-2.53 6.187-5.062L512 355l1.836 1.059c6.118 3.322 11.207 4.778 18.164 4.941l1 4h-25v2c-1.552 1.393-3.17 2.714-4.813 4-4.026 3.217-7.898 6.5-11.687 10-4.416 4.06-8.962 7.893-13.629 11.66-3.1 2.527-6.143 5.116-9.184 7.715-4.955 4.222-10.015 8.283-15.16 12.273a381 381 0 0 0-9.945 8.016l-2.276 1.897a864 864 0 0 0-4.358 3.669c-4.124 3.448-8.197 6.249-12.948 8.77-2.401-2.693-3.944-4.532-4.085-8.206.863-8.371 2.543-16.522 4.335-24.731l.944-4.39A795 795 0 0 1 433 365q-8.512-.007-17.023.098-2.89.027-5.781.022c-13.562-.469-13.562-.469-25.306 5.32-3.527 2.911-7.879 4.155-12.14 5.685l-3.015 1.107c-10.067 3.638-20.243 6.959-30.423 10.268l-2.49.81q-3.54 1.147-7.084 2.284l-2.143.693c-3.514 1.12-6.975 2.024-10.595 2.713l.034 3.56q.151 16.617.225 33.237c.026 5.696.061 11.39.118 17.087.055 5.498.084 10.996.097 16.495q.015 3.143.055 6.287c.036 2.94.04 5.879.039 8.819l.054 2.615c-.035 4.09-.464 7.383-2.47 10.995C312 496 312 496 301 496v-91l-4 4c-.112-2.751-.19-5.498-.25-8.25l-.102-2.238c-.084-5.195.61-9.923 1.778-14.958 2.829-12.426 3.178-24.466 3.183-37.163q.023-3.286.05-6.573c.044-5.695.064-11.39.08-17.084.019-5.84.06-11.68.1-17.52.076-11.404.126-22.809.161-34.214l-3.068.424-4.053.553-2.014.28c-15.447 2.091-15.447 2.091-20.553-1.257L270 269c1.368-3.039 2.942-5.23 5.23-7.645l1.936-2.052 2.021-2.115 1.963-2.08a386 386 0 0 1 9.4-9.62l1.605-1.643C294 242 294 242 295.845 240.405c4.228-4.026 5.639-7.057 5.95-12.913q-.003-3.81-.111-7.617a905 905 0 0 1-.03-4.069 736 736 0 0 0-.173-10.633c-.072-3.626-.104-7.253-.14-10.88-.074-7.099-.193-14.196-.341-21.293a219733 219733 0 0 0-100.348-.055h-2.129q-17.085-.008-34.17-.022-17.518-.014-35.036-.017-9.846 0-19.69-.012-9.255-.01-18.51-.007-3.407 0-6.815-.006-4.63-.006-9.26-.001l-2.762-.01c-3.956-.386-3.956-.386-7.28 1.13-.098 1.908-.124 3.82-.123 5.73l-.006 3.795.009 4.224q0 2.223-.003 4.445-.002 6.137.007 12.273.005 6.606.002 13.213 0 11.455.008 22.911.011 16.563.012 33.126.004 26.87.019 53.74.014 26.108.02 52.217v3.248l.005 16.134Q64.966 466.028 65 533l22 1-4 4c1.08 3.24 1.498 3.634 4.16 5.48l1.904 1.338 1.998 1.37 2.01 1.404A878 878 0 0 0 98 551l1.443-1.241A848 848 0 0 1 111 540c-.568-4.404-2.284-8.04-4.16-12.012C106 526 106 526 106 524c-4.171-.11-4.171-.11-8.25.625L96 525c-2-2-2-2-2.25-5.375.225-3.26.526-4.931 2.25-7.625l-2-3c-.523-4.106-.644-6.142 1.875-9.5 4.518-2.169 8.298-1.362 13.125-.5v-2l4-1 .812-3.375C115 489 115 489 118 487c6.903-.668 6.903-.668 10.875 1.75 3.2 3.388 4.007 5.133 4.5 9.813-.375 3.437-.375 3.437-2 5.25-5.4 2.7-10.453 3.507-16.375 4.187l-3 1c-1.585 5.71-.164 9.498 1.875 14.813l.855 2.35c1.155 3.697 1.155 3.697 3.27 6.837 2.996.33 4.531.301 7.098-1.348l3.937-3.437C131 527 131 527 133.184 527.254 135 528 135 528 136 529v5h139c-2.26 12.43-2.26 12.43-4.063 17.625l-1.035 3.04C269 557 269 557 268 558c-2.114.097-4.23.122-6.346.12l-2.032.003c-2.264.002-4.527-.004-6.79-.01l-4.848.001q-6.6-.001-13.202-.013c-4.594-.006-9.187-.006-13.781-.008q-13.057-.005-26.116-.021-14.862-.015-29.724-.022-30.58-.016-61.161-.05l1.254 2.065 1.642 2.718 1.628 2.69c1.722 2.949 3.125 5.944 4.44 9.093l1.487 3.471q1.488 3.528 2.961 7.063c3.074 7.152 6.428 13.063 11.588 18.9l2.562 2.934C138.673 614.238 146.394 619.61 155 625l3 2c2.425-.124 2.425-.124 5.062-.75l2.958-.598q2.842-.62 5.68-1.273c5.092-1.13 9.156-1.808 14.3-.379a182 182 0 0 1 3.273 2.54c6.053 3.873 12.794 2.993 19.727 2.773q2.04-.038 4.082-.069 4.96-.087 9.918-.244 3.346-7.125 6.687-14.25l1.015-2.163q8.175-17.43 16.26-34.9l1.526-3.296 1.33-2.874A242 242 0 0 1 253 565h5c.7 1.54.7 1.54 1 4a78 78 0 0 1-3.2 7.352l-1.05 2.193c-1.135 2.365-2.286 4.722-3.438 7.08q-1.173 2.437-2.343 4.875a3915 3915 0 0 1-3.55 7.38c-3.537 7.335-6.964 14.717-10.357 22.12q-1.418 3.094-2.84 6.188l-1.163 2.542c-.983 2.108-2.02 4.19-3.059 6.27l-78 1v-2l-3.938-.5C127.916 629.82 113.44 618.076 101 605a524 524 0 0 0-3-3c-5.04 4.705-9.321 9.813-13.53 15.255-4.088 5.283-8.302 10.452-12.545 15.61-2.841 3.482-5.594 7.003-8.241 10.635l-1.622 2.22a339 339 0 0 0-3.017 4.229c-3.593 4.962-6.14 6.492-12.233 7.664-4.62.469-9.171.578-13.812.575l-2.776.001C22.348 658.13 14.76 657.335 7 656c1.414-15.613 6.055-30.51 12.062-44.937l1.246-2.993c2.458-5.704 5.244-10.91 8.692-16.07l2.36-3.676C36.492 580.474 41.896 573.136 48 566q1.534-1.842 3.062-3.687L53 560l-1.758-.191-2.367-.371-2.32-.317c-4.12-1.808-6.467-4.11-8.555-8.121-.901-5.272-.798-10.513-.742-15.842q-.006-2.454-.022-4.908c-.019-4.49 0-8.978.024-13.468.02-4.844.005-9.688-.006-14.532-.015-9.486.002-18.973.03-28.46.03-11.043.03-22.086.029-33.13-.001-19.701.026-39.402.07-59.103a24791 24791 0 0 0 .06-60.945v-3.564c-.002-21.764.016-43.527.043-65.29q.013-11.553.013-23.106.003-14.072.043-28.144.023-7.183.02-14.366-.005-6.57.029-13.141.008-2.382 0-4.762c-.006-2.153.006-4.306.023-6.459l.007-3.628C38.042 154.65 38.885 152.8 41 150c3.689-2.459 5.479-2.249 9.882-2.246"/><path fill="#121212" d="M463 580h194c4.444 24.444 4.444 24.444 5.508 34.102.672 5.327 1.586 10.606 2.492 15.898a2986 2986 0 0 1 9.443 59.315c.508 3.36 1.035 6.716 1.573 10.072l.446 2.825q.397 2.505.814 5.005c1.002 6.39 1.002 6.39-.276 9.783-1.464 1.457-1.464 1.457-3.367 2.813l-2.154 1.55-2.354 1.637-2.448 1.728C606.859 766.553 526.327 800.623 452 798a665 665 0 0 1-1.5-4.312l-.844-2.426C449 789 449 789 449 786h9c-2.785-3.713-4.27-5.667-8.562-7.625-4.53-2.39-5.01-6.29-6.454-10.934-1.623-5.675-3.042-11.39-4.421-17.129-1.894-7.735-3.795-15.445-6.125-23.062-2.365-7.728-4.285-15.549-6.21-23.396-1.42-5.75-2.934-11.442-4.666-17.104-2.387-7.829-4.388-15.749-6.375-23.687l-.952-3.796C412 650.259 412 650.259 412 648l2.1-.031q10.802-.163 21.606-.341 4.034-.066 8.066-.125 5.794-.088 11.587-.187l3.65-.05 3.396-.06 2.988-.048A28.4 28.4 0 0 0 472 646c-1.313-3.938-2.875-6.266-6-9-2.405-1.203-4.104-1.203-6.79-1.316l-2.85-.127-2.985-.12-3.008-.13q-3.683-.16-7.367-.307c2.759-19.312 12.82-36.861 20-55"/><path fill="#727272" d="M670 55c.645 16.533-3.728 32.976-8.062 48.813l-.973 3.652C657.107 121.05 651.453 133.995 646 147l3.642-.027q16.995-.121 33.989-.18 8.736-.03 17.473-.095 8.432-.063 16.865-.078 3.216-.01 6.433-.043c3.004-.029 6.008-.033 9.013-.031l2.683-.044c5.45.037 8.604.824 12.902 4.498 2.075 3.113 2.25 3.771 2.248 7.298l.013 2.674-.016 2.94.007 3.121c.005 3.469-.004 6.937-.012 10.405q0 3.72.006 7.44.006 8.025-.002 16.05c-.008 8.458.003 16.916.017 25.374q.008 4.341.013 8.682l.004 2.192a32631 32631 0 0 1 .026 63.566q-.007 18.78.038 37.562c.017 7.721.02 15.442 0 23.164-.013 5.92 0 11.842.023 17.762a996 996 0 0 1-.011 7.28c-.017 3.315-.002 6.629.02 9.943l-.036 2.907c.09 6.6 1.815 10.365 5.662 15.64 9.876 20.026 13.781 44.86 7.25 66.418-4.464 12.793-13.369 24.68-25.25 31.582h-2l-10-19-3 2v-52h-2l-.82 3.727c-.823 3.71-1.678 7.41-2.547 11.109-3.04 13.107-5.576 26.15-7.34 39.494l-.434 3.225-.36 2.827c-.861 4.52-1.602 6.971-5.397 9.708l-3.477 1.847-3.46 1.903C695 519 695 519 692.792 518.328L691 517c-4.818-3.203-4.818-3.203-10.375-4.25-3.976 1.371-4.48 2.226-7.062 5.313-4.508 4.467-8.726 4.437-14.764 4.497-4.94-.088-9.868-.256-14.799-.56-.633-3.478-1.255-6.957-1.875-10.437l-.527-2.893c-2.761-15.593-3.906-30.652-3.804-46.477.019-2.98.02-5.962.02-8.943q.007-2.867.018-5.734l.003-2.677c.032-4.073.144-7.866 1.165-11.839l-2.36.438c-23.645 3.922-47.165 1.776-68.015-10.875C566 420 566 420 565.313 416.938c1.864-10.676 6.349-19.64 11.687-28.938l-2.168-.273c-12.918-3.315-25.47-18.414-32.078-29.375-5.356-9.158-5.356-9.158-6.754-13.352h133v20c3.571 4.257 3.571 4.257 8 5v23c7.91 3.955 13.695 6.79 22.367 4.328 1.901-.717 3.77-1.515 5.633-2.328v-5q3.345.466 6.688.938l3.761.527c2.877.433 5.703.952 8.551 1.535-.138-4.313-.287-8.625-.437-12.937l-.12-3.733-.127-3.545-.11-3.285c.07-2.44.07-2.44-1.206-3.5a81 81 0 0 0-4.691-.316l-2.862-.127-3.01-.12-3.021-.13q-3.708-.16-7.416-.307a230 230 0 0 1-.152-4.312l-.086-2.426C701 356 701 356 703.438 353l2.562-2c1.356-1.125 1.356-1.125 1.063-4.062L707 344h-5l-3 6-2-1 1-3.187c.84-3.202 1.198-5.554 1-8.813a787 787 0 0 0-12.07-4.465q-2.028-.736-4.055-1.473l-2.05-.724c-5.672-2.079-12.003-4.693-14.825-10.338-.558-4.94-.554-7.003 1.875-11.375 3.7-4.57 3.7-4.57 7-5 3.879.465 4.502 1.594 7.125 4.375 4.4 2.34 8.56 3.365 13.438 4.375C703.977 314.267 710.1 317.652 715 325c.313 2.875.313 2.875 0 5l3.438.438C722 331 722 331 723 332c.247 4.932.25 8.499-2 13l3-1V173l-91-1 2-8c-1.239-2.933-2.33-4.957-4.125-7.5l-1.377-2.067A278 278 0 0 0 625 148l-1.515-2.116A370 370 0 0 0 593 109l-1.867-1.996c-8.302-8.6-18.098-15.542-27.75-22.524A188 188 0 0 1 555 78c32.264-14.196 65.804-23.424 101.063-25.812l2.219-.162c4.265-.223 8.512-.232 11.718 2.974"/><path fill="#606060" d="m527.779 448.482 2.361-.02c2.575-.018 5.149-.007 7.723.007q2.69-.004 5.38-.012 5.641-.008 11.281.022c4.809.022 9.616.01 14.425-.015 3.705-.014 7.41-.01 11.116 0q2.658.005 5.316-.01c2.485-.01 4.968.006 7.452.028l2.2-.024c5.493.09 8.527 1.544 12.967 4.542 3.382 3.524 5.393 7.5 7.398 11.906l.946 2.03q1.522 3.279 3.031 6.564 2.133 4.596 4.273 9.187l1.091 2.347c2.43 5.22 4.908 10.413 7.425 15.591l.99 2.038q1.882 3.87 3.776 7.732 1.289 2.629 2.57 5.261l1.469 2.994C642 521 642 521 642 523l2.061-.013q10.609-.066 21.218-.097 3.96-.015 7.92-.04c3.794-.025 7.586-.036 11.38-.045l3.582-.032h3.336l2.934-.014c2.679.251 4.239.96 6.569 2.241 2.752-.03 5.271-.545 8-1v4q3.219-.21 6.438-.438c1.194-.08 2.39-.162 3.62-.246 2.828.007 2.828.007 3.942-1.316l.098-3.316C724 519 724 519 727.246 516.848a142 142 0 0 1 4.192-1.786c6.354-2.847 11.541-5.994 16.84-10.593C750 503 750 503 751 503c.101 6.887.171 13.773.22 20.66q.03 3.514.082 7.028c.048 3.368.071 6.736.089 10.105l.062 3.17c.002 7.285.002 7.285-2.352 11.175-3.375 2.992-5.33 2.982-9.765 2.96l-3.398-.01-3.563-.026-3.586-.013q-4.395-.018-8.789-.049c-1.34-2.789-2.67-5.581-4-8.375l-1.156-2.406-1.094-2.305-1.016-2.126C712 541 712 541 712 539l-2.64.621-3.61.816-3.516.81c-11.361 2.214-22.965 1.878-34.484 1.815q-2.447-.008-4.895-.013-5.927-.017-11.855-.049l.438 2.012c.185.883.37 1.766.562 2.675l.563 2.637C653 553 653 553 653 558H347l4 8c4.447 10.04 7.076 19.66 4.36 30.574-3.686 8.848-11.728 15.724-18.36 22.426l-2.691 2.738A421 421 0 0 1 329 627l3.324-1.348 4.364-1.715 2.185-.892c6.988-2.712 6.988-2.712 11.127-1.045 2.238 1.629 2.238 1.629 4.313 3.562l2.113 1.942L358 629l1.016-3.488c2.516-7.538 6.232-14.584 9.734-21.7l2.094-4.29q2.062-4.226 4.15-8.438a369 369 0 0 0 3.871-8.079l.909-1.915a687 687 0 0 0 2.399-5.13c2.105-3.41 4.417-5.882 7.827-7.96 3.473-.621 3.473-.621 7.335-.615l2.145-.017c2.324-.012 4.646.012 6.97.038q2.43.003 4.862 0 5.083.003 10.165.052c4.345.04 8.688.044 13.033.037 3.344-.004 6.687.009 10.03.026q2.403.01 4.807.009c2.236.002 4.47.023 6.706.05l3.855.026c3.092.394 3.092.394 5.027 1.74 1.435 2.23 1.189 3.877.693 6.42-1.435 5.103-3.505 9.976-5.503 14.879l-1.468 3.654a2897 2897 0 0 1-3.866 9.561c-1.317 3.25-2.623 6.503-3.932 9.755q-2.862 7.114-5.742 14.22l-1.168 2.884A68 68 0 0 1 442 635q-35.373.035-70.747.052-16.422.007-32.846.023-14.31.015-28.618.02-7.581 0-15.163.01-7.127.01-14.254.008-2.625 0-5.248.006-3.566.006-7.132.001l-2.126.01c-4.752-.016-4.752-.016-5.866-1.13-.592-6.283 1.15-11.133 3.438-16.938l1.092-2.799c8.704-21.69 22.792-39.068 39.47-55.263l-8-1 1.207-2.719c4.007-9.317 6.234-18.271 7.793-28.281q.574-3.54 1.173-7.075.382-2.256.738-4.518c.865-5.183.865-5.183 3.089-7.407l.297 2.379c1.139 8.003 2.468 13.85 8.578 19.496 3.222 2.191 5.28 2.85 9.125 3.125-1.536 5.121-3.528 9.055-6 14l18 2 .875-4.688c1.365-7.314 1.365-7.314 3.125-10.312 2.934-1.04 2.934-1.04 6.438-1.625 4.422-.465 4.422-.465 7.792-2.9 2.752-2.293 5.734-1.878 9.154-1.836l2.297-.008c2.548-.004 5.095.012 7.642.028h5.47c4.956-.002 9.912.016 14.868.037 5.177.019 10.354.02 15.531.024 9.807.01 19.613.034 29.42.064 11.163.033 22.326.05 33.49.065q34.448.048 68.898.151l-1.028-2.482-5.495-13.27c-4.438-10.712-8.844-21.436-13.163-32.196q-1.027-2.553-2.062-5.103a2151 2151 0 0 1-3.076-7.633l-.931-2.281c-3.168-7.954-3.168-7.954-3.245-12.035 3.193-4.52 6.62-4.575 11.779-4.518"/><path fill="#444352" d="M385.39 167.613C398.92 172.698 410.609 181.32 422 190c-3.627 5.037-7.49 9.763-11.562 14.438-6.272 7.229-12.081 14.768-17.827 22.418a1593 1593 0 0 1-4.783 6.324c-5.86 7.718-5.86 7.718-11.437 15.64l-1.23 1.82a600 600 0 0 0-3.224 4.883c-3.777 4.829-8.785 5.166-14.578 6.168l-2.548.455q-2.667.475-5.336.94-4.053.71-8.104 1.435-2.6.461-5.2.92l-2.421.43-2.325.405-2.01.351c-3.46.534-6.94.939-10.415 1.373l1 62 8-9c2.128-1.946 4.172-3.746 6.438-5.5l1.776-1.381C347.098 305.937 363.93 295.106 378 297c2.22 2.026 3.793 3.757 5.563 6.125 3.215 4.105 6.366 7.943 10.324 11.36 10.244 8.904 10.244 8.904 11.031 14.812.22 5.402-.61 10.472-1.918 15.703h36l3-9c2.533-2.3 2.533-2.3 5.566-3.957l3.383-1.913 1.787-.96c2.486-1.337 4.936-2.735 7.39-4.13a869 869 0 0 1 3.7-2.09c5.016-2.823 9.849-5.848 14.611-9.075l2.097-1.42c2.162-1.475 4.315-2.963 6.466-4.455l2.616-1.808c10.359-7 10.359-7 20.27-14.598C512 290 512 290 515 290c1.255 1.538 1.255 1.538 2.488 3.7.457.79.913 1.582 1.383 2.397l1.442 2.59 1.482 2.619C528.643 313.54 534.518 324.685 534 339c-1.937.563-1.937.563-4 1-1.579-1.579-1.388-3.439-1.687-5.625C525.962 321.078 519.15 308.881 513 297c0 4.044 1.841 6.825 3.688 10.313 9.744 18.984 9.744 18.984 9.312 29.687-6.537-1.37-12.872-3.088-19.25-5.062-7.291-2.3-7.291-2.3-14.75-3.938.578 1.99.578 1.99 2 4 2.819 1.318 2.819 1.318 6.063 2.188 5.88 1.754 5.88 1.754 6.937 2.812.287 2.971.449 5.942.621 8.922.372 3.02 1.12 5.324 2.379 8.078a385 385 0 0 1-18.082 15.617 615 615 0 0 0-9.418 7.883 826 826 0 0 1-20.629 16.988l-3.058 2.45-2.793 2.214L454 401v2l2.492-2.125c5.12-4.355 10.238-8.701 15.508-12.875 3.878-3.073 7.669-6.233 11.438-9.437 5.794-4.929 11.66-9.762 17.562-14.563q3.095-2.53 6.188-5.062L512 355l1.836 1.059c6.118 3.322 11.207 4.778 18.164 4.941l1 4h-25v2c-1.552 1.393-3.17 2.714-4.812 4-4.027 3.217-7.899 6.5-11.688 10-4.416 4.06-8.962 7.893-13.629 11.66-3.1 2.527-6.143 5.116-9.183 7.715-4.956 4.222-10.016 8.283-15.16 12.273a381 381 0 0 0-9.946 8.016l-2.276 1.897a864 864 0 0 0-4.358 3.669c-4.124 3.448-8.197 6.249-12.948 8.77-2.401-2.693-3.944-4.532-4.085-8.206.863-8.371 2.543-16.522 4.335-24.731l.944-4.39A795 795 0 0 1 433 365q-8.512-.006-17.023.098-2.89.027-5.781.022c-13.562-.469-13.562-.469-25.306 5.32-3.527 2.911-7.879 4.155-12.14 5.685l-3.015 1.107c-10.067 3.638-20.243 6.959-30.423 10.268l-2.49.81q-3.54 1.147-7.084 2.284l-2.143.693c-3.514 1.12-6.975 2.024-10.595 2.713l.034 3.56q.151 16.617.225 33.237c.026 5.696.061 11.39.118 17.087.055 5.498.084 10.996.097 16.495q.015 3.143.055 6.287c.036 2.94.04 5.879.039 8.819l.054 2.615c-.035 4.09-.464 7.383-2.47 10.995C312 496 312 496 301 496v-91l-4 4c-.112-2.751-.19-5.498-.25-8.25l-.102-2.238c-.084-5.195.61-9.923 1.778-14.958 2.829-12.426 3.178-24.466 3.183-37.163q.023-3.286.05-6.573c.044-5.695.064-11.39.08-17.084.019-5.84.06-11.68.1-17.52.076-11.404.126-22.809.161-34.214l-3.068.424-4.053.553-2.014.28c-15.447 2.091-15.447 2.091-20.553-1.257L270 269c1.368-3.039 2.942-5.23 5.23-7.645l1.936-2.052 2.022-2.115 1.962-2.08a451 451 0 0 1 11.294-11.517c1.62-1.657 3.124-3.382 4.618-5.154 5.065-5.883 10.676-11.26 16.196-16.711 3.993-3.956 7.952-7.945 11.905-11.94a5672 5672 0 0 1 8.282-8.34q2.166-2.183 4.328-4.37c8.074-8.168 16.086-16.091 25.227-23.076l2.461-1.894c6.561-5.016 11.578-6.635 19.93-4.493"/><path fill="#2F2E40" d="M712 539c1.34 2.789 2.67 5.581 4 8.375l1.156 2.406 1.094 2.305 1.016 2.126C720 556 720 556 720 558h23v1h-22c2.357 5.206 2.357 5.206 4.725 10.406 2.81 6.268 5.22 12.669 7.606 19.106a1568 1568 0 0 0 5.439 14.394l.986 2.586 2.018 5.287q3.2 8.39 6.392 16.78 2.632 6.915 5.28 13.824c5.998 15.733 11.566 31.623 17.157 47.504l3.285 9.33q3.271 9.269 6.655 18.498 1.153 3.164 2.304 6.332c.693 1.892 1.4 3.779 2.106 5.666 2.209 6.085 3.49 10.821 3.047 17.287 1.07 5.735 2.903 8 7 12 5.917 9.8 11.371 25.33 10.813 36.875-.81 3.112-1.21 4.323-3.813 6.125-4.64 1.546-9.16 1.611-14 1-7.032-4.788-9.675-14.157-11.75-22.062l-.661-2.491c-1.624-6.572-1.972-12.473-1.57-19.248-.021-3.56-.572-5.951-2.019-9.199l-1.86-1.738c-3.365-3.556-4.636-7.929-6.39-12.45-4.166-10.356-8.788-20.412-13.687-30.437l-1.038-2.123A2973 2973 0 0 0 742 688l-.912-1.84A3040 3040 0 0 0 731 666h-2a127 127 0 0 0-4.937 5.75c-13.487 16.295-13.487 16.295-19.36 21.148-2.487 3.069-2.13 5.252-2.015 9.164l.046 2.188c.064 2.584.163 5.166.266 7.75l.238 6.598q.193 5.274.403 10.548c.328 8.292.484 16.556.359 24.854h-3c.316 4.977.743 8.847 3 13.313 2.628 5.369 2.8 10.788 3 16.687-3.305 2.203-4.277 2.246-8.114 2.227h-3.154l-3.4-.032-3.485-.008c-3.678-.011-7.356-.037-11.034-.062q-3.738-.016-7.475-.027-9.169-.034-18.338-.098l-2-4c8.068-11.05 22.497-15.748 35-20h2a295 295 0 0 0-.875-3.937l-.492-2.215c-.463-2.055-.463-2.055-2.633-2.848-.48-1.723-.48-1.723-.806-4l-.386-2.59-.394-2.84-.43-2.935c-.46-3.169-.91-6.34-1.359-9.51q-.473-3.265-.949-6.531-1.15-7.92-2.282-15.846c-.827-5.772-1.67-11.542-2.519-17.31l-.457-3.114c-1.39-9.362-2.972-18.69-4.556-28.022-1.679-9.975-3.153-19.971-4.518-29.993-.784-5.695-1.694-11.318-2.864-16.946-.791-3.895-1.42-7.813-2.043-11.738l-.38-2.305c-1.03-6.465-1.509-12.741-2.057-19.32H464l1-11a4554 4554 0 0 0-29.025-.26c-4.494-.025-8.986-.06-13.479-.117-4.338-.055-8.675-.084-13.013-.097q-2.48-.015-4.959-.055a417 417 0 0 0-6.958-.039l-3.997-.033c-4.692.79-6.235 2.263-9.569 5.601-1.845 2.797-1.845 2.797-3.227 5.918l-1.67 3.517-1.728 3.753a2252 2252 0 0 1-1.817 3.856 1445 1445 0 0 0-4.638 9.964q-1.362 2.95-2.734 5.895A3375 3375 0 0 0 358 629c-2.925-1.311-4.145-2.169-6.312-4.687-2.485-2.622-2.485-2.622-5.75-2.438-4.67 1.033-9.03 3.196-13.364 5.164L330 628l-2-1 1.434-1.386c18.094-16.036 18.094-16.036 26.128-37.739-.076-9.004-3.38-16.793-6.806-25.012-.648-1.597-1.211-3.228-1.756-4.863h306l-2-15 7.023-.148c24.497-.263 24.497-.263 48.735-3.414C709 539 709 539 712 539"/><path fill="#121212" d="M208 648h64l-8 18c-1.496 8.54-1.496 8.54 2 15 2.562 1.619 5.193 2.866 8 4l-.98 1.559c-1.358 3.25-1.321 5.99-1.332 9.504l-.051 3.722c.061 3.536.061 3.536 3.363 6.215l33 1v70h-28v4h63v-4h-28v-70l31-1c3.258-4.344 3.39-5.33 3.313-10.5l-.012-3.406c-.285-2.925-.78-4.621-2.301-7.094 1-1 1-1 4.816-1.098q2.374.01 4.747.035l2.443.014q2.997.02 5.994.049l-1.496 2.887-1.942 3.8-.986 1.897c-3.342 6.581-3.707 12.04-3.717 19.26q-.027 2.607-.058 5.215c-.03 2.725-.051 5.45-.051 8.176a574 574 0 0 1-.078 7.921l.021 2.46c-.093 4.341-.243 5.867-3.204 9.27L351 747c-1.015 5.51 1.251 11.009 2.875 16.25l.816 2.758c1.355 4.948 1.355 4.948 4.309 8.992 2.433.462 2.433.462 5.125.625l2.758.227L369 776v-2l-3-1a72 72 0 0 1-2.187-7.687l-.538-2.147c-1.787-7.475-1.805-11.915 2.225-18.729 5.323-9.343 8.871-19.343 12.5-29.437 3.296 1.099 3.666 1.554 5.531 4.29l1.461 2.108 1.508 2.227q1.45 2.115 2.906 4.227l1.63 2.415a92 92 0 0 0 4.643 5.923c8.447 10.217 11.082 20.057 13.446 32.935q.556 2.798 1.125 5.594 1.239 6.164 2.387 12.346c.434 2.315.893 4.626 1.363 6.935h9v-10l15 1 3 14c-5.217.724-10.254 1.137-15.531 1.168l-2.122.013q-3.424.013-6.847.006l-2.4-.001c-54.717-.113-108.181-9.584-161.59-20.71A744 744 0 0 0 240 777l-3.06-.622c-4.504-.742-4.504-.742-8.784.5-1.804 1.338-3.331 2.772-4.906 4.372q-1.78 1.664-3.566 3.32l-1.821 1.724c-3.044 2.788-6.287 5.306-9.55 7.831l-1.783 1.396c-2.462 1.92-4.93 3.746-7.53 5.479-2.687-.375-2.687-.375-5-1 3.201-2.458 6.522-4.692 9.875-6.937 6.96-4.745 13.277-10.13 19.582-15.703 2.121-1.87 4.273-3.705 6.418-5.548A77 77 0 0 0 233 769v-1a419 419 0 0 0-5.437-.125l-3.06-.07c-2.934.163-4.998.584-7.773 1.37-5.495 1.304-9.74-.09-14.98-1.862l-2.64-.819c-10.63-3.395-10.63-3.395-13.85-7.962-1.791-5.021-.711-8.623.495-13.712l.673-3.062c.74-3.334 1.507-6.661 2.275-9.988q.78-3.474 1.553-6.948a3810 3810 0 0 1 4.142-18.27c1.413-6.2 2.8-12.407 4.192-18.613a8448 8448 0 0 1 6.138-27.147l.655-2.885.603-2.638.523-2.292c.418-1.681.943-3.334 1.491-4.977"/><path fill="#606060" d="M670 55c.645 16.533-3.728 32.976-8.062 48.813l-.973 3.652C657.107 121.05 651.453 133.995 646 147l3.642-.027q16.995-.121 33.989-.18 8.736-.03 17.473-.095 8.432-.063 16.865-.078 3.216-.01 6.433-.043c3.004-.029 6.008-.033 9.013-.031l2.683-.044c5.45.037 8.604.824 12.902 4.498 2.074 3.111 2.25 3.765 2.246 7.29l.012 2.667-.017 2.933.005 3.113c.003 3.46-.008 6.92-.019 10.379v7.42q.002 8-.016 16c-.016 7.71-.021 15.421-.024 23.133q-.007 18.765-.036 37.53-.028 18.23-.041 36.461l-.002 2.27-.007 11.271Q751.068 358.234 751 405l-2.022-1.253-2.685-1.642-2.647-1.628c-3.776-2.108-7.605-3.274-11.771-4.352l-2.32-.64A481 481 0 0 0 724 394l-.076-2.463c-.115-3.658-.238-7.316-.361-10.974l-.12-3.877-.127-3.682-.11-3.412c.082-2.52.082-2.52-1.206-3.592a81 81 0 0 0-4.691-.316l-2.862-.127-3.01-.12-3.021-.13q-3.708-.16-7.416-.307a230 230 0 0 1-.152-4.312l-.086-2.426C701 356 701 356 703.438 353l2.562-2c1.356-1.125 1.356-1.125 1.063-4.062L707 344h-5l-3 6-2-1 1-3.187c.84-3.202 1.198-5.554 1-8.813a787 787 0 0 0-12.07-4.465q-2.028-.736-4.055-1.473l-2.05-.724c-5.672-2.079-12.003-4.693-14.825-10.338-.558-4.94-.554-7.003 1.875-11.375 3.7-4.57 3.7-4.57 7-5 3.879.465 4.502 1.594 7.125 4.375 4.4 2.34 8.56 3.365 13.438 4.375C703.977 314.267 710.1 317.652 715 325c.313 2.875.313 2.875 0 5l3.438.438C722 331 722 331 723 332c.247 4.932.25 8.499-2 13l3-1V173l-91-1 2-8c-1.239-2.933-2.33-4.957-4.125-7.5l-1.377-2.067A278 278 0 0 0 625 148l-1.515-2.116A370 370 0 0 0 593 109l-1.867-1.996c-8.302-8.6-18.098-15.542-27.75-22.524A188 188 0 0 1 555 78c32.264-14.196 65.804-23.424 101.063-25.812l2.219-.162c4.265-.223 8.512-.232 11.718 2.974"/><path fill="#111" d="m398.375-.25 3.248.01C417.165-.189 432.56.061 448 2l3.25.39C498.084 8.145 543.57 20.247 586 41l2.834 1.374A1355 1355 0 0 1 597 46.375l2.409 1.19C604.425 50.088 609.429 52.72 614 56v1H209C253.669 12.331 338.222-.562 398.375-.25"/><path fill="#2F2E40" d="M98 601c2.438 2.417 4.852 4.84 7.184 7.36C117.21 621.114 132.43 628.706 149 634v1l-3.105.113q-2.042.098-4.083.2l-2.04.068c-4.383.235-7.415.727-10.772 3.619l-3 7 53 1c-4.522 19.217-4.522 19.217-6.937 27.313a493 493 0 0 0-5.625 20.875c-1.896 7.727-3.948 15.396-6.106 23.054a1067 1067 0 0 0-2.945 10.703l-.825 3.048a3816 3816 0 0 0-1.595 5.924l-.733 2.708-.649 2.414C153 745 153 745 152 747c-3.791-1.45-7.387-3.152-11-5l-.277 3.094c-.824 6.593-2.637 12.981-4.286 19.406l-.998 3.938Q134.226 773.22 133 778h-3v4l12-1c1.583 3.165.33 5.744-.437 9.125l-.872 3.883L140 797c-3.75.116-7.499.187-11.25.25l-3.223.102-3.105.039-2.857.063c-3.324-.588-4.506-1.836-6.565-4.454-.059-2.262-.059-2.262.563-4.687l.566-2.387c.482-1.62.982-3.234 1.555-4.824 3.034-8.489 3.982-17.108 4.965-26.03q.351-3.013.788-6.013c1.998-10.733 1.998-10.733-.567-20.896-3.396-3.63-7.53-5.83-11.87-8.163a69 69 0 0 1-3.84-3.11l-1.572-1.327-1.525-1.313-1.706-1.462C93.565 706.876 87.277 700.45 81 694l-.078 2.23c-.466 8.01-.466 8.01-2.797 11.895C69.553 715.689 54.332 711 45 711v77h28v5H9v-5h28v-77H6c-5-3-5-3-6-5-1.069-12.047-1.069-12.047 1.813-17.312C6.414 686.25 10.854 686.099 16 686c-1.361-.96-1.361-.96-2.75-1.937-4.482-3.77-6.788-8.613-7.562-14.399C5.554 664.78 6.43 660.608 8 656l2.324.219c7.46.624 14.88.915 22.364.968l2.586.04c11.002.318 11.002.318 20.729-3.853 1.839-2.12 3.424-4.3 4.997-6.624q1.785-2.463 3.574-4.926l1.748-2.475c2.391-3.347 4.929-6.569 7.49-9.787q1.335-1.692 2.668-3.386C90.4 608.6 90.4 608.6 98 601"/><path fill="#717171" d="M126 487c3.44 2.094 5.78 4.12 7 8 .375 3.563.375 3.563 0 7-4.469 4.984-11.74 5.282-18 6l-3 1c-1.585 5.71-.164 9.498 1.875 14.813l.855 2.35c1.155 3.697 1.155 3.697 3.27 6.837 2.996.33 4.531.301 7.098-1.348l3.937-3.437C131 527 131 527 133.184 527.254 135 528 135 528 136 529v5h139c-2.26 12.43-2.26 12.43-4.062 17.625l-1.036 3.04C269 557 269 557 268 558c-2.114.097-4.23.122-6.346.12l-2.032.003q-3.396.001-6.79-.01l-4.848.001q-6.6-.001-13.202-.013c-4.594-.006-9.187-.006-13.781-.008q-13.057-.005-26.116-.021-14.862-.015-29.724-.022-30.58-.016-61.161-.05l1.254 2.065 1.642 2.718 1.628 2.69c1.722 2.949 3.125 5.944 4.44 9.093l1.487 3.471q1.488 3.528 2.961 7.063c3.074 7.152 6.428 13.063 11.588 18.9l2.563 2.934c7.11 7.304 14.83 12.676 23.437 18.066l3 2c2.425-.124 2.425-.124 5.063-.75l2.957-.598q2.842-.62 5.68-1.273c5.092-1.13 9.156-1.808 14.3-.379a182 182 0 0 1 3.273 2.54c6.053 3.873 12.794 2.993 19.727 2.773q2.04-.038 4.082-.069 4.96-.087 9.918-.244 3.345-7.125 6.688-14.25l1.014-2.163q8.175-17.43 16.26-34.9l1.526-3.296 1.33-2.874A242 242 0 0 1 253 565h5c.7 1.54.7 1.54 1 4a78 78 0 0 1-3.2 7.352l-1.05 2.193c-1.135 2.365-2.286 4.722-3.437 7.08q-1.174 2.437-2.344 4.875a3915 3915 0 0 1-3.55 7.38c-3.537 7.335-6.964 14.717-10.357 22.12q-1.418 3.094-2.84 6.188l-1.163 2.542c-.983 2.108-2.02 4.19-3.059 6.27l-78 1v-2l-3.937-.5c-18.147-3.68-32.624-15.424-45.063-28.5a524 524 0 0 0-3-3c-5.04 4.705-9.321 9.813-13.53 15.255-4.088 5.283-8.302 10.452-12.545 15.61-2.841 3.482-5.594 7.003-8.241 10.635l-1.622 2.22a339 339 0 0 0-3.017 4.229c-3.593 4.962-6.14 6.492-12.233 7.664-4.62.469-9.171.578-13.812.574l-2.776.002C22.348 658.13 14.76 657.335 7 656c1.414-15.613 6.055-30.51 12.063-44.937l1.245-2.993c2.458-5.704 5.244-10.91 8.692-16.07l2.36-3.676C36.494 580.471 41.91 573.15 48 566l2.563-3.25c2.58-2.911 5.315-5.385 8.277-7.898a145 145 0 0 0 4.289-3.829C68.658 545.9 74.536 541.866 81 538l2.813 2.563C88.504 544.607 93.726 547.776 99 551l2.117-2.152 2.758-2.785 2.742-2.778C109 541 109 541 111 540c-.568-4.404-2.284-8.04-4.16-12.012C106 526 106 526 106 524c-4.171-.11-4.171-.11-8.25.625L96 525c-2-2-2-2-2.25-5.375.225-3.26.526-4.931 2.25-7.625l-2-3c-.523-4.106-.644-6.142 1.875-9.5 4.518-2.169 8.298-1.362 13.125-.5v-2l4-1 .813-3.375c2.026-6.186 6.274-6.572 12.187-5.625"/><path fill="#282828" d="M345.371 483.832C347 485 347 485 349 488c.266 2.191.266 2.191.25 4.563l.016 2.378C349 497 349 497 347 499l-2-1c-4.175-.473-6.326-.416-9.937 1.813-3.425 5.291-2.65 10.993-1.54 17.03L334 519a56.5 56.5 0 0 1-7-4c-2.153.308-2.153.308-4 1 .12 2.365.12 2.365 1 5a263 263 0 0 0 5 4c1.438 2.563 1.438 2.563 2 5-2 3-2 3-5.125 3.625-5.468-.882-8.236-3.583-11.875-7.625-2.42-3.63-3.253-6.977-4.07-11.2l-.532-2.725L309 510l-.396 2.472q-.75 4.631-1.52 9.259c-.325 1.967-.64 3.937-.955 5.906-1.717 10.252-4.046 20.213-9.129 29.363l8 1c-3.049 3.659-6.09 7.116-9.562 10.375-17.6 17.5-32.332 41.775-35.438 66.625h-31c.867-5.205 2.17-8.986 4.43-13.617l1.05-2.202q1.113-2.328 2.235-4.652c1.559-3.23 3.1-6.468 4.643-9.706q1.733-3.632 3.469-7.263c2.953-6.188 5.86-12.397 8.736-18.622l1.388-2.967 1.24-2.694 1.069-2.305c.916-2.089.916-2.089.74-4.972l-5-1-.777 2.52c-1.354 3.852-3.02 7.493-4.786 11.168l-1.054 2.218a2861 2861 0 0 1-2.23 4.68c-1.933 4.048-3.856 8.1-5.778 12.152l-1.147 2.419a1127 1127 0 0 0-10.447 22.759l-1.094 2.44-.925 2.082C224 629 224 629 223 630c-3.967.316-7.938.357-11.916.405a309 309 0 0 0-5.945.171c-7.72.09-12.72-.555-18.956-5.273-5.025-3-11.07-.823-16.406.49a218 218 0 0 0-6.148 1.684c-5.39 1.073-8.841-1.615-13.254-4.477-.62-.4-1.24-.802-1.877-1.215-5.668-3.752-10.626-8.048-15.498-12.785l-2.18-1.992c-8.854-8.32-13.285-18.869-18.007-29.883q-1.546-3.593-3.106-7.18l-1.36-3.171c-1.235-2.543-2.648-4.535-4.347-6.774v-2l164-1c3.31-9.794 3.31-9.794 5.746-19.637l.85-3.998q.637-3.048 1.256-6.1c2.522-12.373 5.584-21.697 16.148-29.265 4.131-2.164 8.56-3.166 13.242-2.848 2.353.158 4.43.241 6.758-.152 2.308-2.669 2.308-2.669 4-6 8.469-8.276 18.727-10.78 29.371-5.168"/><path fill="#FBE801" d="m527.779 448.482 2.361-.02c2.575-.018 5.149-.007 7.723.007q2.69-.004 5.38-.012 5.641-.008 11.281.022c4.809.022 9.616.01 14.425-.015 3.705-.014 7.41-.01 11.116 0q2.658.005 5.316-.01c2.485-.01 4.968.006 7.452.028l2.2-.024c5.493.09 8.527 1.544 12.967 4.542 3.382 3.524 5.393 7.5 7.398 11.906l.946 2.03q1.522 3.279 3.031 6.564 2.133 4.596 4.273 9.187l1.091 2.347c2.43 5.22 4.908 10.413 7.425 15.591l.99 2.038q1.882 3.87 3.776 7.732 1.289 2.629 2.57 5.261l1.469 2.994C642 521 642 521 642 523l2.075-.013q10.656-.066 21.314-.097 3.981-.015 7.962-.04c3.807-.025 7.615-.036 11.422-.045l3.615-.032h3.336l2.947-.014C697 523 697 523 699 525c-.25 2.562-.25 2.562-1 5-2.69 1.345-4.775 1.138-7.788 1.154l-3.734.026-4.12.013-4.321.025c-4.738.026-9.475.041-14.213.055l-4.89.017q-10.17.033-20.338.051-14.581.023-29.162.107-10.249.056-20.497.063c-4.082.004-8.164.016-12.246.048q-5.76.044-11.521.025-2.114 0-4.227.025c-10.836.128-10.836.128-15.13-2.732a57 57 0 0 1-4.843-9.5l-.796-1.953a757 757 0 0 1-2.533-6.358l-1.788-4.442a2032 2032 0 0 1-3.71-9.297 2259 2259 0 0 0-4.759-11.886q-1.844-4.583-3.675-9.17-.876-2.192-1.756-4.381-1.228-3.066-2.44-6.138l-1.401-3.52c-1.098-3.192-2-5.852-2.112-9.232 2.903-4.685 6.716-4.574 11.779-4.518"/><path fill="#121212" d="M777 258c16.919 25.378 21.108 68.296 25.25 97.875l.458 3.267c.476 3.615.898 7.233 1.292 10.858l.264 2.386c1.798 16.706 2.097 33.322 2.048 50.114l-.005 4.01c-.037 19.341-.475 38.333-3.307 57.49l-.504 3.633C795.274 538.927 779.161 591.251 751 635c-2.609-2.609-3.297-5.095-4.574-8.562l-.742-2q-1.192-3.216-2.371-6.438-1.62-4.382-3.247-8.762l-.803-2.171a682 682 0 0 0-7.383-19.026c-1.137-2.856-1.88-4.933-1.88-8.041l3.593-.012c4.408-.022 8.815-.077 13.222-.14a613 613 0 0 1 5.718-.044c2.744-.009 5.485-.05 8.229-.097l2.573.012c4.44-.109 6.131-.28 9.68-3.2L775 574l1-1c.102-1.678.134-3.361.139-5.043l.016-3.33.003-3.706.015-3.9q.02-5.385.028-10.768.013-5.797.034-11.593.032-10.051.056-20.102.035-14.533.08-29.065.071-23.576.132-47.151.058-22.907.125-45.814l.008-2.85.041-14.157q.17-58.76.323-117.521"/><path fill="#FCE900" d="m397.335 567.385 2.145-.017c2.324-.012 4.646.012 6.97.038q2.43.003 4.862 0 5.082.003 10.165.052c4.345.04 8.688.044 13.033.037 3.344-.004 6.687.009 10.03.026q2.403.01 4.807.009c2.236.002 4.47.023 6.706.05l3.855.026c3.092.394 3.092.394 5.027 1.74 1.435 2.23 1.189 3.877.693 6.42-1.435 5.103-3.505 9.976-5.503 14.879l-1.468 3.654q-1.925 4.784-3.866 9.561c-1.317 3.25-2.623 6.503-3.932 9.755q-2.862 7.114-5.742 14.22l-1.168 2.884A68 68 0 0 1 442 635q-35.373.035-70.747.052-16.422.007-32.846.023-14.31.015-28.618.02-7.582 0-15.163.01-7.127.01-14.254.008-2.625 0-5.248.006-3.566.006-7.132.001l-2.126.01c-4.752-.016-4.752-.016-5.866-1.13-.492-5.909.905-10.501 3-16 7.27 1.146 14.07 3.258 20.996 5.684q2 .664 4.004 1.316l2.4.809c7.828 2.417 15.318 2.741 23.475 2.754l3.855.11c8.229.039 14.038-1.33 21.274-5.283 3.397-1.576 6.27-2.135 9.996-2.39 2.145 1.398 2.145 1.398 3.812 3.375 2.276 2.718 2.276 2.718 5.188 4.625l1.016-3.488c2.516-7.538 6.232-14.584 9.734-21.7l2.094-4.29q2.062-4.226 4.15-8.438a369 369 0 0 0 3.871-8.079l.909-1.915a687 687 0 0 0 2.399-5.13c3.984-6.454 7.649-8.587 15.162-8.575"/><path fill="#434251" d="M670 55c.645 16.533-3.728 32.976-8.062 48.813l-.973 3.652c-3.909 13.763-9.47 26.049-14.965 39.535h97v1l-98 1-8 15h-2a148 148 0 0 1-4.375-7c-10.591-17.437-23.668-33.168-37.625-48l-1.867-1.996c-8.302-8.6-18.098-15.542-27.75-22.524A188 188 0 0 1 555 78c32.264-14.196 65.804-23.424 101.063-25.812l2.219-.162c4.265-.223 8.512-.232 11.718 2.974"/><path fill="#282827" d="M348 559h306l3 21H464l1-11a4554 4554 0 0 0-29.025-.26c-4.494-.025-8.986-.06-13.479-.117-4.338-.055-8.675-.084-13.013-.097q-2.48-.015-4.959-.055a417 417 0 0 0-6.958-.039l-3.997-.033c-4.692.79-6.235 2.263-9.569 5.601-1.845 2.797-1.845 2.797-3.227 5.918l-1.67 3.517-1.728 3.753a2252 2252 0 0 1-1.817 3.856 1445 1445 0 0 0-4.638 9.964q-1.362 2.95-2.734 5.895A3375 3375 0 0 0 358 629c-2.925-1.311-4.145-2.169-6.312-4.687-2.485-2.622-2.485-2.622-5.75-2.438-4.67 1.033-9.03 3.196-13.364 5.164L330 628l-2-1 1.434-1.386c18.094-16.036 18.094-16.036 26.128-37.739-.067-9.051-3.446-16.878-6.92-25.126C348 561 348 561 348 559"/><path fill="#2F2E40" d="M272 648h110l2 9-4 1a121 121 0 0 0-6.375 5.313l-3.727 3.253L366 670a1891 1891 0 0 1-7.75 6.75l-1.806 1.591C352.226 682 352.226 682 350 682v2l-2 1 .977 1.598c1.3 3.051 1.36 5.528 1.398 8.84l.086 3.37C350 702 350 702 346 707h-31v70h28v4h-63v-4h28v-70h-33c-4-4-4-4-4.46-7.312.027-1.217.056-2.434.085-3.688l.04-3.687c.306-3.027.745-4.77 2.335-7.313l-3.312-1.25c-3.242-1.421-5.09-2.464-6.688-5.75-2.97-11.284 3.658-20.206 9-30"/><path fill="#717171" d="M309 508h1l.297 2.379c1.139 8.003 2.468 13.85 8.578 19.496 3.222 2.191 5.28 2.85 9.125 3.125-1.536 5.121-3.528 9.055-6 14l18 2 1-3c3.527 6.067 6.519 12.2 9.188 18.688l1.037 2.47c4.092 9.83 6.738 18.708 4.146 29.447-4.818 11.28-16.364 20.686-25.113 28.977-1.48 1.351-1.48 1.351-1.258 3.418-31.552 1.008-31.552 1.008-44.962-4.225-3.165-1.204-6.387-2.225-9.605-3.273A890 890 0 0 1 264 618c5.253-23.261 23.383-42.864 40-59l-8-1 1.207-2.719c3.711-8.63 6.008-16.866 7.458-26.156.485-3.073 1.02-6.136 1.557-9.2q.396-2.258.777-4.518c.89-5.184.89-5.184 2.001-7.407"/><path fill="#AEAEAE" d="M536 345h133v20c3.571 4.257 3.571 4.257 8 5l-1 17-6.332.043c-14.806.181-28.508.67-42.695 5.34-17.806 5.562-36.302 3.258-53.098-4.383-16.666-8.885-31.829-24.862-37.875-43"/><path fill="#121212" d="M115 580h130c-1.125 6.75-1.125 6.75-2.61 9.859l-.993 2.104-1.073 2.217-1.11 2.338a1884 1884 0 0 1-3.526 7.357q-1.173 2.458-2.342 4.918C229.96 615.895 226.534 622.97 223 630q-5.92.223-11.84.33c-1.992.044-3.982.12-5.972.197-7.746.118-12.75-.48-19.007-5.222-5.02-3.005-11.07-.825-16.404.488a218 218 0 0 0-6.148 1.684c-5.39 1.073-8.841-1.615-13.254-4.477-.62-.4-1.24-.802-1.877-1.215-5.668-3.752-10.626-8.048-15.498-12.785l-2.18-1.992c-7.365-6.92-12.35-15.536-15.82-25.008z"/><path fill="#606060" d="M126 487c3.44 2.094 5.78 4.12 7 8 .375 3.563.375 3.563 0 7-4.469 4.984-11.74 5.282-18 6l-3 1c-1.585 5.71-.164 9.498 1.875 14.813l.855 2.35c1.155 3.697 1.155 3.697 3.27 6.837 2.996.33 4.531.301 7.098-1.348l3.937-3.437C131 527 131 527 133.184 527.254 135 528 135 528 136 529v5h139c-2.26 12.43-2.26 12.43-4.062 17.625l-1.036 3.04C269 557 269 557 268 558c-2.117.108-4.238.144-6.357.154l-2.036.013c-2.268.014-4.536.02-6.804.026l-4.857.025c-5.332.026-10.665.041-15.997.055l-5.498.017q-11.433.033-22.866.051-16.405.023-32.812.107-11.523.056-23.047.063c-4.592.004-9.184.016-13.776.048q-6.48.044-12.96.025-2.38 0-4.76.025c-2.164.023-4.327.015-6.492-.001l-3.672.01C103 558 103 558 100.58 555.462L99 553c1.466-3.397 3.366-5.607 6-8.187l2.125-2.106C109 541 109 541 111 540c-.568-4.404-2.284-8.04-4.16-12.012C106 526 106 526 106 524c-4.171-.11-4.171-.11-8.25.625L96 525c-2-2-2-2-2.25-5.375.225-3.26.526-4.931 2.25-7.625l-2-3c-.523-4.106-.644-6.142 1.875-9.5 4.518-2.169 8.298-1.362 13.125-.5v-2l4-1 .813-3.375c2.026-6.186 6.274-6.572 12.187-5.625"/><path fill="#121212" d="M98 601c2.438 2.417 4.852 4.84 7.184 7.36C117.21 621.114 132.43 628.706 149 634v1l-3.105.113q-2.042.098-4.083.2l-2.04.068c-4.383.235-7.415.727-10.772 3.619l-3 7 53 1c-4.523 19.223-4.523 19.223-6.937 27.313-2.317 7.922-4.404 15.879-6.368 23.896A266 266 0 0 1 161 715c-10.579-12.956-13.207-22.13-12.808-38.749-.218-2.551-.82-4.098-2.192-6.251-24.905-12.561-63.575-11.916-91-14 1.607-5.255 4.945-9.082 8.313-13.312l1.883-2.393c5.71-7.232 11.508-14.39 17.35-21.516q2.054-2.515 4.09-5.045L89 610.812l2-2.48c2.212-2.58 4.57-4.958 7-7.332"/><path fill="#DBDBDB" d="M534.844 133.809c10.796-.607 20.409 3.48 28.781 10.05 7.284 6.565 12.895 15.517 13.613 25.426.216 11.004-1.081 19.3-8.238 28.028-7.413 7.545-15.017 11.214-25.562 11.312-11.862-.267-20.85-4.24-29.344-12.473-8.905-9.49-10.765-19.877-10.492-32.52.5-8.714 4.503-15.186 10.71-21.132 6.125-4.967 12.703-7.879 20.532-8.691"/><path fill="#121212" d="M19 314h1l.003 1.655a87902 87902 0 0 0 .26 108.727l.006 2.343c.036 12.526.06 25.051.081 37.577q.033 19.275.099 38.548.04 11.895.05 23.792c.006 6.078.028 12.156.055 18.234q.015 3.744.011 7.488c-.002 3.4.015 6.801.036 10.202l-.014 3.01c.05 4.92.109 8.479 3.413 12.424 2.434 1.217 4.418 1.32 7.125 1.563l2.758.253L36 580c-.611 2.917-1.513 5.134-3.066 7.672l-1.221 2.012-1.276 2.066-1.287 2.113A1363 1363 0 0 1 26 599c-2.756-2.373-3.73-4.477-4.832-7.918l-.971-3.013-1.01-3.256-1.061-3.392C9.339 552.906 3.846 523.697 1 494l-.29-2.912c-1.069-12.437-.954-24.927-.96-37.4l-.002-3.712C-.235 430.466.391 411.353 3 392l.264-1.983C6.707 364.333 11.572 338.847 19 314"/><path fill="#313041" d="M345.371 483.832C347 485 347 485 349 488c.266 2.191.266 2.191.25 4.563l.016 2.378C349 497 349 497 347 499l-2-1c-4.175-.473-6.326-.416-9.937 1.813-3.425 5.291-2.65 10.993-1.54 17.03L334 519a56.5 56.5 0 0 1-7-4c-2.153.308-2.153.308-4 1 .12 2.365.12 2.365 1 5a263 263 0 0 0 5 4c1.438 2.563 1.438 2.563 2 5-2 3-2 3-5.125 3.625-5.468-.882-8.236-3.583-11.875-7.625-2.42-3.63-3.253-6.977-4.07-11.2l-.532-2.725L309 510l-.396 2.472q-.75 4.631-1.52 9.259c-.325 1.967-.64 3.937-.955 5.906-1.717 10.252-4.046 20.213-9.129 29.363l8 1v1l-2.09-.062c-7.353.16-10.398 1.878-15.531 6.984-5.35 4.674-12.351 7.301-19.442 7.578-4.685-.595-4.685-.595-6.937-3.5 0-5.22 1.964-5.964 6-10H104v-2l164-1c3.31-9.794 3.31-9.794 5.746-19.637l.85-3.998q.637-3.048 1.256-6.1c2.522-12.373 5.584-21.697 16.148-29.265 4.131-2.164 8.56-3.166 13.242-2.848 2.353.158 4.43.241 6.758-.152 2.308-2.669 2.308-2.669 4-6 8.469-8.276 18.727-10.78 29.371-5.168"/><path fill="#FAB8B7" d="m381 656 3 1c.903 2.543.903 2.543 1.654 5.978l.87 3.889.91 4.254q.48 2.187.967 4.373c.853 3.859 1.69 7.721 2.525 11.584.837 3.86 1.687 7.716 2.537 11.572q1.708 7.755 3.39 15.516c1.148 5.298 2.31 10.591 3.546 15.87l.596 2.566q.515 2.206 1.056 4.407c.77 3.306 1.174 5.767-.051 8.991-14.423-18.205-14.423-18.205-20.547-27.91-1.286-2.206-1.286-2.206-3.453-3.09l-.727 3.867c-1.207 5.423-3.31 10.238-5.648 15.258l-1.172 2.59c-1.752 3.827-3.548 7.518-5.746 11.11-1.708 3.177-2.172 4.388-1.644 7.862l.382 2.54c1.449 7.472 1.449 7.472 3.555 14.773l2 1v2c-1.603.081-3.208.14-4.812.188l-2.708.105C359 776 359 776 357.305 774.879c-1.789-2.576-2.503-5.12-3.368-8.129l-1.019-3.52L352 760l-.7-2.2c-1.176-3.713-1.89-6.924-1.3-10.8l2.49-2.138c3.406-3.884 3.195-6.535 3.112-11.53l.024-2.53c.023-2.664.013-5.326-.001-7.99-.021-14.362.006-25.598 8.375-37.812l-14-1v-2c1.487-1.354 3.044-2.631 4.625-3.875 4.64-3.71 9.19-7.496 13.688-11.375a1148 1148 0 0 1 5.068-4.354q1.654-1.426 3.265-2.902c1.584-1.416 1.584-1.416 4.354-3.494"/><path fill="#3C3C3C" d="m11.914 686.46 2.047.009c2.222.015 4.442.067 6.664.12q2.325.033 4.65.06 4.868.069 9.735.181c4.152.095 8.304.15 12.458.191 3.2.036 6.4.091 9.6.153q2.295.04 4.592.065c2.143.026 4.284.078 6.426.136l3.689.072c3.825.656 5.529 1.8 8.225 4.553.629 3.059.629 3.059.563 6.437l.003 3.372c-.674 3.798-1.859 5.484-4.566 8.191-9.808 3.27-20.661 1-31 1v77h28v5H9v-5h28v-77H6c-5-3-5-3-6-5a111 111 0 0 1-.375-6.813l-.148-3.707c1.086-7.22 5.664-9.113 12.437-9.02"/><path fill="#2F2E40" d="M188 648h10c-1.604 8.17-3.344 16.305-5.125 24.438l-.451 2.062c-2.97 13.565-6.045 27.106-9.154 40.64l-.934 4.074a702 702 0 0 1-2.236 9.48l-.834 3.45-.742 3c-.988 5.382-.875 9.026 1.976 13.731l1.406 2.367L183 753h2l.316 2.21c.744 3.035 1.833 4.87 3.621 7.415.525.755 1.05 1.51 1.59 2.29L192 767c2.18 3.269 3.094 6.218 4.219 9.941.689 2.24.689 2.24 2.781 4.059l1.574-1.39a800 800 0 0 1 4.348-3.798c1.526-1.33 3.028-2.689 4.516-4.062 7.351-5.02 14.892-5.146 23.562-4.75 0 3 0 3-2.273 5.418q-1.539 1.399-3.102 2.77l-1.658 1.481C204.015 796.131 204.015 796.131 193 800q-1.694-3.56-3.375-7.125l-.96-2.016c-1.832-3.89-3.395-7.74-4.665-11.859h-4l-.77 3.21-1.042 4.165-.502 2.117c-1.346 5.281-1.346 5.281-4.686 7.508-3.062-.187-3.062-.187-6-1-2.643-3.965-1.853-6.548-1-11 .804-3.615 1.62-7.225 2.477-10.828.618-3.72.618-3.72-.477-7.172-1.778-1.95-3.663-3.723-5.602-5.512-3.485-6.201.67-16.365 2.368-22.89l.834-3.263q.873-3.408 1.755-6.815 1.325-5.121 2.633-10.249c2.657-10.358 5.374-20.693 8.272-30.987 2.176-7.763 4.12-15.582 6.053-23.409l1.087-4.379q1.305-5.247 2.6-10.496"/><path fill="#FB9996" d="M675 328q3.46 1.031 6.918 2.074 3.281.985 6.57 1.946l3.512 1.043 3.313.972C698 335 698 335 700 337c-.26 2.343-.6 4.677-1 7v4l1.188-2.5L702 343c2.625-.375 2.625-.375 5 0 1 1 1 1 1.375 3.688-.518 4.579-2.145 6.082-5.375 9.312h-2v9l1.896-.032c2.826-.041 5.653-.067 8.479-.093l2.984-.05 2.852-.02 2.634-.032C722 365 722 365 724 367c.227 2.614.227 2.614.195 5.883l-.02 3.535-.05 3.707-.027 3.73q-.036 4.573-.098 9.145c-6.497-.587-12.655-1.465-19-3l1 5c-7.072 3.745-12.884 5.573-20.719 3.164-6.664-2.547-6.664-2.547-9.281-5.164-.243-2.015-.243-2.015-.23-4.465l.005-2.674.038-2.798.001-2.788c.045-6.853.045-6.853 1.186-10.275l-2.812-.25C671 369 671 369 669.336 367.46c-1.881-3.465-1.909-6.732-1.899-10.585l-.003-2.369c.204-7.542 1.973-20.913 7.566-26.506"/><path fill="#606060" d="M536 345h133l-1 20c-15.638.301-31.275.533-46.915.674-7.262.067-14.523.158-21.785.307q-9.495.197-18.994.242c-3.353.017-6.7.063-10.051.151-20.36.514-20.36.514-25.134-2.6-3.321-3.399-4.715-7.262-6.121-11.774z"/><path fill="#434155" d="M566.39 136.233c9.746 7.434 16.976 17.7 19.61 29.767 1.297 14.007.128 26.245-8.313 37.937-7.552 8.907-18.596 15.308-30.367 16.286-14.579.435-27.743-4.26-38.476-14.246-10.499-11.255-15.487-24.503-15.153-39.832 1.136-11.576 6.055-21.427 14.496-29.395 17.31-13.776 40.537-13.126 58.202-.517m-55.703 10.08A79 79 0 0 0 508 150l-1.254 1.812c-4.633 8.266-3.897 19.447-2.086 28.481 3.206 9.84 10.425 19.044 19.64 23.926 9.712 4.45 20.891 5.885 31.24 2.687 8.936-4.253 15.17-10.01 19.46-18.906 3.21-9.68 3.71-20.381-.75-29.734L573 156l-1.25-2.328c-5.656-9.448-14.269-15.554-24.75-18.672-13.778-3.168-26.668.895-36.313 11.312"/><path fill="#AFAFAF" d="m369 260-2 2.375c-2.242 3.514-2.865 6.478-2.727 10.633 1.474 6.07 5.211 11.184 8.636 16.334 1.434 2.178 2.768 4.41 4.091 6.658l-1.598.516C359.23 301.795 344.922 307.63 332 319l-2.21 1.883c-3.779 3.244-7.255 6.582-10.79 10.117v-63c25.231-5.046 25.231-5.046 34.563-6.812l3.552-.694 3.389-.639 2.994-.573C366 259 366 259 369 260"/><path fill="#3C3C3C" d="M281.977 685.258c7.888.71 15.691.811 23.609.734l3.632-.025c4.997-.035 9.994-.078 14.991-.138 3.688-.042 7.376-.066 11.064-.087l3.438-.056 3.17-.01 2.785-.03c2.334.354 2.334.354 4.127 1.69 1.88 2.592 1.64 4.886 1.644 8.039l.06 3.398C350 702 350 702 346 707h-31v70h28v4h-63v-4h28v-70h-33c-4-4-4-4-4.531-7.312L270.5 696l-.031-3.687c1.139-7.104 4.986-7.773 11.508-7.055"/><path fill="#FBB1AF" d="M512 296c4.482 3.657 6.26 8.387 8.5 13.563l1.197 2.723c7.255 16.644 7.255 16.644 7.74 23.152.161 3.665.161 3.665 2.825 5.304 3.491 2.88 5.055 5.978 7.113 9.945 3.38 6.261 6.99 11.89 11.625 17.313l2.309 2.922c2.673 3.204 5.676 5.703 9.004 8.203l1.719 1.31c4.145 3.097 8.228 5.52 12.968 7.565-1.452 3.778-3.154 7.369-4.937 11-3.044 6.511-4.748 12.955-6.063 20-13.983-5.916-22.424-22.714-28-36-2.828-7.195-5.067-14.292-6-22l-1.836.176c-7.246.39-11.985-1.495-18.164-5.176l-7.46 6.312q-4.46 3.77-8.911 7.551A1279 1279 0 0 1 475 387q-2.782 2.28-5.562 4.563A1465 1465 0 0 1 454 404l-2-2a385 385 0 0 1 18.082-15.617c3.172-2.59 6.298-5.23 9.418-7.883a912 912 0 0 1 14.71-12.219c4.961-4.057 9.874-8.171 14.79-12.281l-.96-2.105c-1.134-3.157-1.445-5.868-1.665-9.207l-.227-3.239L506 337l-2.555-.805-3.32-1.07-3.305-1.055C494 333 494 333 492 331v-3c6.335.595 12.061 2.042 18.125 3.938l2.629.802A471 471 0 0 1 526 337c-1.934-14.17-8.877-27.23-15-40z"/><path fill="#DBDBDB" d="M481.895 209.84c7.342 3.35 12.873 8.69 16.043 16.16 1.957 6.224 1.696 11.962-.833 17.98-2.889 5.279-7.1 10.594-12.96 12.618-7.248 1.36-14.905 1.624-21.372-2.278-6.214-4.627-10.776-9.687-12.773-17.32-.942-7.362-.62-13.966 4-20 7.877-8.187 16.703-10.407 27.895-7.16"/><path fill="#131312" d="m261.54 579.902 3.944.01 4.141.025q2.082.009 4.164.014 5.106.018 10.211.049c-1.365 3.554-2.813 6.285-5.125 9.313-6.584 9.24-11.256 19.627-15.312 30.187l-.749 1.92c-1.735 4.712-2.163 8.372-2.814 13.58h-31c1.125-6.75 1.125-6.75 2.579-9.795l.972-2.066 1.054-2.178 1.096-2.31q1.734-3.641 3.487-7.276 1.147-2.407 2.29-4.816 2.738-5.747 5.514-11.476.976-2.017 1.946-4.037 1.237-2.57 2.488-5.132l1.376-2.837c2.316-4.015 5.458-3.193 9.737-3.175"/><path fill="#121212" d="M693 596c2.87 2.535 4.471 5.378 6.3 8.723l.95 1.725c1.026 1.869 2.044 3.742 3.063 5.615l2.135 3.898a3639 3639 0 0 1 16.034 29.649l1.627 3.038 1.502 2.824c1.21 2.203 2.504 4.315 3.842 6.442C730 661 730 661 730.055 663.56c-1.435 3.32-3.549 5.831-5.93 8.504l-1.475 1.697A536 536 0 0 1 718 679l-1.532 1.707A636 636 0 0 1 707 691l-2.191 2.34C703 695 703 695 701 695l-.136-2.686c-1.652-32.169-3.332-64.4-7.864-96.314"/><path fill="#F89389" d="M722 444h2l1 50h3c1.51 2.765 3.006 5.538 4.5 8.313l1.3 2.38 1.231 2.295 1.143 2.11C737 511 737 511 737 514q-2.685 1.256-5.375 2.5l-3.023 1.406C726 519 726 519 724 519l.125 3.375C724 526 724 526 722 528c-3.04.195-3.04.195-6.625.125l-3.602-.055L709 528v-4l-2.117.508-2.758.617-2.742.633L699 526l-2-2c-2.426-.331-2.426-.331-5.276-.319l-3.336-.06-3.615-.035-3.69-.059c-3.903-.06-7.805-.106-11.708-.152l-7.922-.117A6433 6433 0 0 0 642 523v-1l2.212.051c16.368 1.022 16.368 1.022 30.413-5.676l2.332-2.453C679 512 679 512 681.199 511.453c3.816.31 6.215 1.72 8.926 4.235L693 518c2.982-.239 2.982-.239 6-2l2.199-.888c4.815-2.167 4.815-2.167 7.842-6.304.62-2.73.983-5.397 1.271-8.183q.435-3.117.872-6.234l.405-3.217c.641-4.954 1.446-9.876 2.286-14.799l.477-2.836c1.776-10.065 4.629-19.787 7.648-29.539"/><path fill="#636363" d="M317 395q.176 18.202.26 36.406c.025 5.635.06 11.27.117 16.905.055 5.44.084 10.88.097 16.32q.015 3.11.055 6.22c.036 2.91.04 5.816.039 8.725l.054 2.588c-.044 5.111-.891 8.562-4.163 12.578C312 496 312 496 309.105 496.684l-2.918-.247-2.957-.19L301 496a3211 3211 0 0 1-.179-36.014c.003-5.576-.014-11.15-.078-16.724a959 959 0 0 1-.039-16.145q.003-3.077-.052-6.154c-.272-16.084-.272-16.084 3.778-20.782 3.454-2.253 8.289-5.181 12.57-5.181"/><path fill="#313042" d="M674.875 303.625c3.879.465 4.502 1.594 7.125 4.375 4.4 2.34 8.56 3.365 13.438 4.375C703.977 314.267 710.1 317.652 715 325c.313 2.875.313 2.875 0 5l3.438.438C722 331 722 331 723 332c.643 7.463-.987 11.364-5.812 17.188-1.445 1.771-1.445 1.771-.875 4.062L717 355c-5.733 3.95-9.03 5.132-16 5 0-4 0-4 2.438-6.687L706 351c1.356-1.125 1.356-1.125 1.063-4.062L707 344h-5l-3 6-2-1 1-3.187c.84-3.202 1.198-5.554 1-8.813a787 787 0 0 0-12.07-4.465q-2.028-.736-4.055-1.473l-2.05-.724c-5.672-2.079-12.003-4.693-14.825-10.338-.558-4.94-.554-7.003 1.875-11.375 3.7-4.57 3.7-4.57 7-5"/><path fill="#F99B98" d="M350 682h20l.813 7.438C372 699.262 374.337 706.786 380 715h-2l-.727 3.867c-1.207 5.423-3.31 10.238-5.648 15.258l-1.172 2.59c-1.752 3.827-3.548 7.518-5.746 11.11-1.708 3.177-2.172 4.388-1.644 7.862l.382 2.54c1.449 7.472 1.449 7.472 3.555 14.773l2 1v2c-1.603.081-3.208.14-4.812.188l-2.708.105C359 776 359 776 357.305 774.879c-1.789-2.576-2.503-5.12-3.368-8.129l-1.019-3.52L352 760l-.7-2.2c-1.176-3.713-1.89-6.924-1.3-10.8l2.49-2.138c3.406-3.884 3.195-6.535 3.112-11.53l.024-2.53c.023-2.664.013-5.326-.001-7.99-.021-14.362.006-25.598 8.375-37.812l-14-1z"/><path fill="#646464" d="M319 268c.294 8.171.549 16.342.754 24.516.096 3.796.206 7.59.347 11.386.136 3.67.235 7.338.311 11.01a226 226 0 0 0 .143 4.178c.364 8.588-.207 14.095-5.81 20.815-2.712 3.256-4.324 6.943-6.058 10.783l-1.01 2.142c-1.995 4.322-3.487 8.56-4.677 13.17h-1v-95l-3-1q3.874-.505 7.75-1l2.21-.29c3.389-.43 6.619-.71 10.04-.71"/><path fill="#323043" d="M126 487c3.44 2.094 5.78 4.12 7 8 .375 3.563.375 3.563 0 7-4.469 4.984-11.74 5.282-18 6l-3 1c-1.585 5.71-.164 9.498 1.875 14.813l.855 2.35c1.155 3.697 1.155 3.697 3.27 6.837 2.996.33 4.531.301 7.098-1.348l3.937-3.437C131 527 131 527 133.137 527.07c1.863.93 1.863.93 2.91 2.645 1.86 5.88 2.3 11.134 1.953 17.285-6.88 2.621-13.722 2.182-21 2-8.631-16.708-8.631-16.708-11-25-4.171-.11-4.171-.11-8.25.625L96 525c-2-2-2-2-2.25-5.375.225-3.26.526-4.931 2.25-7.625l-2-3c-.523-4.106-.644-6.142 1.875-9.5 4.518-2.169 8.298-1.362 13.125-.5v-2l4-1 .813-3.375c2.026-6.186 6.274-6.572 12.187-5.625"/><path fill="#2F2E41" d="m787 743 .48 2.012c1.54 5.823 3.037 8.833 7.52 12.988 5.917 9.8 11.371 25.33 10.813 36.875-.81 3.112-1.21 4.323-3.813 6.125-4.64 1.546-9.16 1.611-14 1-7.032-4.788-9.676-14.157-11.75-22.062l-.661-2.494c-1.615-6.54-1.974-12.405-1.57-19.147-.022-3.846-.823-6.658-2.019-10.297l4.813-1.937 2.707-1.09C784.55 743 784.55 743 787 743"/><path fill="#131313" d="M392 648h11c4.199 15.465 8.294 30.95 12.105 46.516l.51 2.078q1.791 7.327 3.572 14.656a11624 11624 0 0 0 4.598 18.845c2.097 8.585 4.267 17.138 6.835 25.595 1.143 3.878 1.58 7.27 1.38 11.31-3.445-.615-5.491-1.538-8-4-1.365-2.916-2.27-5.955-3.207-9.031l-.874-2.743c-.924-2.905-1.828-5.815-2.731-8.726a4095 4095 0 0 0-3.583-11.344l-.895-2.844c-1.956-6.149-4.125-12.181-6.429-18.207-3.15-8.31-5.239-16.59-6.969-25.293a2439 2439 0 0 0-1.305-6.262q-.423-2.025-.842-4.05c-1.303-6.272-2.863-12.455-4.536-18.637C392 653 392 653 392 648"/><path fill="#FBADAB" d="M345 497c6.26 3.847 10.37 9.746 14 16l1.14 1.926c1.723 4.157 1.39 8.671.86 13.074-2.065 3.386-3.662 3.875-7.375 5.25-3.354.694-6.22.808-9.625.75l-.621 2.52-.817 3.293-.808 3.269A90 90 0 0 1 340 549c-12.67.369-12.67.369-18-2 1.443-5.34 4.068-9.651 6.953-14.316 1.324-2.642 1.324-2.642.414-5.348-1.33-2.272-2.416-3.569-4.492-5.149L322 520l1-5c1.766-.652 1.766-.652 4-1 1.922.996 1.922.996 3.75 2.438l1.86 1.433L334 519l-.977-2.156c-1.647-4.579-1.629-9.042-1.023-13.844 3.396-5.66 6.48-6.841 13-6"/><path fill="#FCAFAE" d="M675 328q3.46 1.031 6.918 2.074 3.281.985 6.57 1.946l3.512 1.043 3.313.972C698 335 698 335 700 337c-.26 2.343-.6 4.677-1 7v4l1.188-2.5L702 343c2.625-.375 2.625-.375 5 0 1 1 1 1 1.375 3.688-.518 4.579-2.145 6.082-5.375 9.312h-2l-.562 2.625c-2.168 5.088-5.818 8.067-10.731 10.52-3.316 1.047-6.231 1.229-9.707 1.293l-3.625.12C673 370 673 370 670.105 367.985c-2.646-3.75-2.904-6.73-2.793-11.171l.024-2.356c.289-7.504 2.11-20.904 7.664-26.457"/><path fill="#302E42" d="M686 754h15l.25 3.938c.376 3.55 1.143 6.194 2.75 9.375 2.628 5.369 2.8 10.788 3 16.687-3.305 2.203-4.277 2.246-8.114 2.227h-3.154l-3.4-.032-3.485-.008c-3.678-.011-7.356-.037-11.034-.062q-3.738-.016-7.475-.027-9.169-.034-18.338-.098l-2-4c8.068-11.05 22.497-15.748 35-20h2z"/><path fill="#454357" d="M489 208c7.61 5.432 13.94 12.696 16 22 1.104 9.732-.646 18.004-6.687 25.813-5.015 5.397-11.661 8.771-18.977 9.425-10.02.251-16.81-1.843-24.586-8.238-7.404-7.182-11.28-14.808-11.437-25.125.179-8.005 2.153-13.986 7.554-19.93C461.356 202.11 476.44 200.455 489 208m-35.437 9.563c-4.013 6.259-4.418 12.154-3.563 19.437 2.32 7.85 7.367 13.366 14 18 6.199 3.104 13.727 3.109 20.379 1.383 6.567-2.905 11.36-8.312 14.058-14.883 1.45-9.022.235-14.774-4.687-22.45-4.658-6.1-10.624-9.432-18.191-10.566-9.84-.467-15.317 2.057-21.997 9.078"/><path fill="#AEAEAE" d="m321.829 171.88 2.415.006h2.73l2.967.016 3.023.005c3.2.005 6.399.018 9.599.03q3.244.008 6.49.014 7.973.017 15.947.049c-2.77 2.786-5.547 5.55-8.434 8.215-6.606 6.14-13.15 12.324-19.503 18.726l-1.512 1.523q-3.72 3.75-7.414 7.524l-2.727 2.762-2.433 2.484C321 215 321 215 319 215q-.037-8.944-.055-17.89-.008-3.045-.02-6.09a3325 3325 0 0 1-.023-8.735l-.015-2.768c0-2.173.05-4.345.113-6.517 1-1 1-1 2.829-1.12"/><path fill="#151413" d="M356 580h24c-1.925 5.775-3.762 10.972-6.434 16.344l-.967 1.982q-1.512 3.09-3.036 6.174a5985 5985 0 0 0-3.997 8.156l-.956 1.953A344 344 0 0 0 358 629c-2.925-1.311-4.145-2.169-6.312-4.687-2.485-2.622-2.485-2.622-5.75-2.438-4.67 1.033-9.03 3.196-13.364 5.164L330 628l-2-1 1.434-1.386c18.359-16.541 18.359-16.541 26.191-38.927z"/><path fill="#F5E301" d="M253 565h5c.7 1.54.7 1.54 1 4a78 78 0 0 1-3.2 7.352l-1.05 2.193c-1.135 2.365-2.286 4.722-3.437 7.08q-1.174 2.437-2.344 4.875a3915 3915 0 0 1-3.55 7.38c-3.537 7.335-6.964 14.717-10.357 22.12q-1.418 3.094-2.84 6.188l-1.163 2.542c-.983 2.108-2.02 4.19-3.059 6.27h-65l1-3-3-1-1-3c17.532-6.352 17.532-6.352 26-4a182 182 0 0 1 3.273 2.54c6.053 3.873 12.794 2.993 19.727 2.773q2.04-.038 4.082-.069 4.96-.087 9.918-.244 3.345-7.125 6.688-14.25l1.014-2.163q8.175-17.43 16.26-34.9l1.526-3.296 1.33-2.874A242 242 0 0 1 253 565"/><path fill="#131313" d="M188 648h10c-1.604 8.17-3.343 16.305-5.125 24.438l-.452 2.066a3738 3738 0 0 1-7.61 33.933l-.492 2.148A4599 4599 0 0 1 177 742c-2.457-2.396-4.38-4.797-6.25-7.687l-1.64-2.45c-2.619-6.757.83-15.014 2.64-21.738l.819-3.094c1.733-6.52 3.545-13.017 5.384-19.509 3.653-13.09 6.788-26.33 10.047-39.522"/><path fill="#121212" d="M80 691q7.58.03 15.161.153 2.579.034 5.156.043c2.474.009 4.945.05 7.417.097l2.324-.012c3.883.106 5.569.35 8.38 3.127 6.902 11.452 6.347 22.65 4.562 35.592-12.019-7.567-38.22-24.663-43-39"/><path fill="#F9B4AE" d="M263 618c7.27 1.146 14.07 3.258 20.996 5.684q2 .664 4.004 1.316l2.4.809c7.828 2.417 15.318 2.741 23.475 2.754l3.855.11c8.229.039 14.038-1.33 21.274-5.283 3.402-1.579 6.262-2.144 9.996-2.39 2.469 1.512 2.469 1.512 4.5 3.688l2.094 2.136C357 629 357 629 356.588 631.136L356 633l-1.854.031q-9.513.163-19.026.341-3.555.066-7.11.125-5.097.088-10.194.187l-3.232.05-2.972.06-2.632.048c-1.98-.057-1.98-.057-2.98 1.158a62 62 0 0 1-4.229.13l-2.72.009-2.957-.006-3.016.003q-3.162 0-6.325-.006c-3.24-.005-6.478 0-9.718.007q-3.065 0-6.129-.004l-2.957.006-2.72-.01-2.407-.002C261 635 261 635 260 634c-.492-5.909.905-10.501 3-16"/><path fill="#727171" d="M709 524v4h12v1l-11 1 2 8c-2.98 1.987-4.498 2.461-7.937 3.063l-2.59.472c-10.26 1.374-20.443 1.62-30.785 1.59l-3.995.012-3.869-.004-3.466-.004c-3.51-.135-6.89-.574-10.358-1.129-1.193-3.877-2-6.916-2-11l1.847-.031q9.489-.163 18.978-.341 3.544-.066 7.09-.125 5.085-.088 10.17-.187l3.218-.05 2.972-.06 2.624-.048c2.159-.029 2.159-.029 4.101-1.158l1-3c3.457-1.216 6.328-2 10-2"/><path fill="#5F5F5F" d="M403 345h36l-3 12-2 9-41-1c4-7 4-7 5.563-9.437 1.868-3.331 3.096-6.987 4.437-10.563M309 508h1l.297 2.379c1.139 8.003 2.468 13.85 8.578 19.496 3.222 2.191 5.28 2.85 9.125 3.125-2.772 9.47-6.252 13.649-14.328 19.129-2.195 1.537-3.93 3.04-5.797 4.933-3.718 2.506-5.83 2.09-10.117 1.333L296 558l1.207-2.719c3.711-8.63 6.008-16.866 7.458-26.156.485-3.073 1.02-6.136 1.557-9.2q.396-2.258.777-4.518c.89-5.184.89-5.184 2.001-7.407"/><path fill="#2F2D41" d="M233 767c0 3 0 3-2.273 5.418q-1.539 1.399-3.102 2.77l-1.658 1.481C204.015 796.131 204.015 796.131 193 800a875 875 0 0 1-2-4.375l-1.125-2.46C189 791 189 791 189 789l1.68-.734 2.195-1.016 2.18-.984c2.332-1.518 2.774-2.784 3.945-5.266 2.505-2.521 5.27-4.727 8-7l2.438-2.25c7.351-5.02 14.892-5.146 23.562-4.75"/><path fill="#ADADAD" d="M702 365c3.292-.058 6.583-.094 9.875-.125.937-.017 1.874-.034 2.84-.05l2.715-.02 2.507-.032C722 365 722 365 724 367c.227 2.614.227 2.614.195 5.883l-.02 3.535-.05 3.707-.027 3.73q-.036 4.573-.098 9.145c-10.777-.996-10.777-.996-15.062-1.937l-2.223-.465C705 390 705 390 704 388c-.398-2.75-.75-5.49-1.062-8.25l-.276-2.277c-.485-4.183-.763-8.254-.662-12.473"/><path fill="#ADACAC" d="M722 444h2c.178 7.401.3 14.802.385 22.205q.052 3.774.143 7.547c.085 3.625.125 7.248.156 10.873l.11 3.388c.002 5.72-.373 9.209-4.185 13.63-2.524 2.488-5.142 4.819-8.047 6.857l-2.058 1.469L709 511c1.666-22.548 5.794-45.543 13-67"/><path fill="#FAA09E" d="M106 524c1.934 2.8 1.934 2.8 3.438 6.313l1.558 3.488c1.386 4.417 1.386 4.417.004 7.199-1.672 1.781-1.672 1.781-3.75 3.5l-2.047 1.719c-2.394 1.935-4.799 3.858-7.203 5.781l-16-12c1.35-4.052 3.396-4.875 6.938-7.187l3.277-2.168C95 529 95 529 97 529l.375-2.437L98 524c3.042-1.521 4.794-.993 8 0"/><path fill="#FBB1B0" d="M128 506q1.255 4.687 2.5 9.375l.723 2.695.683 2.578.635 2.38C133 525 133 525 133 527c-1.934 1.473-1.934 1.473-4.437 3.063-2.935 1.774-2.935 1.774-5.563 3.937-2.375.375-2.375.375-5 0-2.668-3.723-4.192-7.777-5.75-12.062l-1.36-3.66c-.847-3.118-1.146-4.38.11-7.278 1.693-2.37 2.995-3.746 5.867-4.473 3.72-.498 7.382-.553 11.133-.527"/><path fill="#AEAEAE" d="M395 172h43c-3.587 4.783-6.89 9.152-10.875 13.5l-2.367 2.594L423 190c-4.49-1.51-7.993-4.01-11.75-6.812-5.22-3.82-10.457-7.276-16.25-10.188z"/><path fill="#F0B1B0" d="M405 707c2.824 2.824 3.62 6.236 4.863 9.945l.83 2.433q.873 2.564 1.737 5.13 1.296 3.84 2.607 7.676.852 2.505 1.701 5.011l.848 2.495c1.34 3.98 2.623 7.961 3.78 11.998l.647 2.221a547 547 0 0 1 1.664 5.948c1.835 4.36 4.338 5.762 8.428 7.838C434 769 434 769 434.801 771.117c.262 2.258.262 2.258.199 5.883-5.065.207-9.354.144-14-2-3.605-7.494-4.799-15.898-6.437-24q-.867-4.251-1.747-8.5l-.438-2.12c-1.328-6.327-2.889-12.584-4.506-18.843-1.185-4.809-2.085-9.649-2.872-14.537"/><path fill="#333042" d="m350 747 .734 3.367C352.91 763.615 352.91 763.615 359 775c1.689-.06 3.376-.148 5.063-.25 5.71-.075 9.747 1.288 13.937 5.25v2c-4.022 1.34-7.727 1.184-11.937 1.188l-2.46.037-2.38.005-2.164.013c-2.475-.292-3.976-.869-6.059-2.243-1.249-1.844-1.249-1.844-2.29-4.07l-1.163-2.47-1.172-2.585-1.195-2.516c-3.241-6.985-5.571-13.533-5.18-21.359 2.928-.976 4.956-1.082 8-1"/><path fill="#2E2D42" d="m141 781 2 2c-.46 3.258-.46 3.258-1.375 7.125l-.898 3.883L140 797c-3.75.116-7.499.187-11.25.25l-3.223.102-3.105.039-2.857.063c-3.331-.59-4.517-1.815-6.565-4.454.047-2.578.047-2.578.75-5.25l.672-2.703L115 783l1.672.496c2.594.562 4.926.601 7.578.567l2.703-.028L129 784v-2a499 499 0 0 1 5.875-.625l3.305-.352z"/><path fill="#8AA8EA" d="M385.375 173.938c10.11 4.467 20.715 9.456 29.625 16.062v2c-2.949-.62-5.237-1.56-7.836-3.074l-2.206-1.267-2.333-1.346c-12.768-7.771-12.768-7.771-26.895-11.52-5.836 1.888-9.456 5.955-13.73 10.207l-3.498 3.422c-3.25 3.192-6.473 6.409-9.69 9.635a2909 2909 0 0 1-6.021 6.015c-5.571 5.569-11.1 11.109-16.2 17.119-3.275 3.724-6.868 7.148-10.404 10.621a1989 1989 0 0 0-4.519 4.458l-1.991 1.956c-1.864 1.872-1.864 1.872-3.677 4.774h-3c1.59-3.932 4.163-6.33 7.188-9.25 3.096-2.997 6.046-5.986 8.838-9.267 4.628-5.313 9.601-10.274 14.58-15.256l3.035-3.046a5767 5767 0 0 1 6.32-6.328c2.7-2.698 5.39-5.403 8.08-8.11a3171 3171 0 0 1 6.252-6.264q1.492-1.494 2.979-2.993a1122 1122 0 0 1 4.162-4.163l2.386-2.39c6.016-5.334 11.436-4.823 18.555-1.995"/><path fill="#FA9794" d="m331 528 1.871.84c5.826 2.491 10.807 3.752 17.129 4.16v1h-6l-.621 2.52-.817 3.293-.808 3.269A90 90 0 0 1 340 549c-12.67.369-12.67.369-18-2 1.392-4.627 3.295-8.647 5.625-12.875l1.914-3.492z"/><path fill="#ACACAC" d="M405 327c3.012 1.506 5.24 2.823 7.863 4.82l2.19 1.621q2.253 1.68 4.484 3.391c4.6 3.371 7.551 5.068 13.463 4.168 2.418-.794 2.418-.794 4.438-2l2.058-1.125L441 337c-.875 5.75-.875 5.75-2 8h-36z"/><path fill="#606060" d="M724 446c3.114 1.557 3.372 4.119 4.563 7.313l1.316 3.488c3.62 10.33 3.426 21.688-.613 31.867C728 491 728 491 724 496z"/><path fill="#3C3C3C" d="M170 767q1.659 1.404 3.313 2.813l1.863 1.582L177 773l1.77 1.34c1.23 1.66 1.23 1.66 1.19 4.332-2.29 12.038-2.29 12.038-4.96 16.328-2.937 1.188-2.937 1.188-6 1-2.437-1.437-2.437-1.437-4-4 .442-5.81 1.677-11.352 3.063-17l.564-2.348q.682-2.827 1.373-5.652"/><path fill="#9D9D9D" d="M65 95c2.875 1.563 2.875 1.563 5 4 1.149 3.95 1.431 6.03-.25 9.813-2.496 3.12-4.148 4.109-8.125 4.624-4.516-.545-5.778-2.004-8.625-5.437l-1-1c-.438-3.853-.306-5.541 1.875-8.812C57.428 94.53 59.969 94.574 65 95"/><path fill="#9C9C9C" d="M120.805 96.484c2.508.59 3.524 1.26 5.257 3.141 2.112 3.679 2.818 5.239 1.938 9.375-2.437 2.813-2.437 2.813-5 5l-1 1c-4.63.42-7.313-.132-11-3-2.101-2.674-1.998-4.043-1.875-7.5 1.694-6.776 5.012-8.324 11.68-8.016"/><path fill="#9D9D9D" d="M91.563 94.875C95.664 96.217 97.45 97.524 100 101c.613 3.678.261 5.466-1.375 8.813C97 112 97 112 95 113c-4.228.498-7.799.674-11.562-1.437C81.278 107.713 81 104.296 82 100c2.393-3.747 5.11-4.969 9.563-5.125"/><path fill="#F8A3A1" d="M197 631v1h-35l-2-4c14.611-5.294 23.9-6.665 37 3"/><path fill="#7992ED" d="M653.09 780.867c6.03.017 12.018.244 18.035.633 11.946.765 23.91.59 35.875.5-1 3-1 3-3 4-1.665.09-3.333.118-5 .114h-3.155l-3.415-.016-3.49-.005c-3.688-.005-7.376-.018-11.065-.03q-3.744-.008-7.488-.014-9.194-.017-18.387-.049l-2-4c1-1 1-1 3.09-1.133"/><path fill="#F9A7A5" d="M787 743c2.771 8.66 2.771 8.66 2 13-3.161 2.86-5.107 3.934-9.375 4.25L777 760a590 590 0 0 1-1.937-3.75l-1.09-2.11c-.929-2.042-1.505-3.951-1.973-6.14l4.813-1.937 2.707-1.09C784.55 743 784.55 743 787 743"/><path fill="#87A5E5" d="M512 354c-1.233 3.7-2.638 4.547-5.687 6.938A438 438 0 0 0 493 372c-5.92 5.1-11.931 10.077-18 15q-2.783 2.28-5.562 4.563A1465 1465 0 0 1 454 404l-2-2a385 385 0 0 1 18.082-15.617c3.172-2.59 6.298-5.23 9.418-7.883a827 827 0 0 1 14.723-12.219c2.03-1.667 4.033-3.35 6.023-5.062l1.644-1.404q2.294-1.967 4.579-3.944C509 354 509 354 512 354"/><path fill="#565650" d="M568.875 478.938c3.292 1.645 5.448 3.836 7.125 7.062.799 4.736.687 7.97-2 12-3.997-.182-5.574-.552-8.375-3.5-1.954-4.208-2.593-7.92-1.625-12.5 2.38-2.98 2.38-2.98 4.875-3.062"/><path fill="#F3A1A0" d="M686 754h15c.36 8.178.36 8.178-1.125 11.563-1.875 1.437-1.875 1.437-4.75 2-4.253-.766-5.591-2.088-8.125-5.563-.687-2.735-.856-5.159-1-8"/><path fill="#FBA19F" d="M195 775c1.877 2.502 2.891 4.505 3.563 7.563C198 785 198 785 195.25 787.313 192 789 192 789 188 789a652 652 0 0 1-2-3.875l-1.125-2.18C184 781 184 781 184 779c1.645-1.324 1.645-1.324 3.813-2.687l2.144-1.387C192 774 192 774 195 775"/><path fill="#2E2D42" d="M153 784c5.73 1.146 5.73 1.146 8.875 4.25l1.867 1.766C165 792 165 792 164 797h-14z"/><path fill="#565750" d="M419 594c3.875.875 3.875.875 5 2 .46 4.275.402 7.985-1.187 12-1.813 2-1.813 2-4.375 2.938L416 611c-2.36-2.36-2.344-3.02-2.437-6.25.074-5.14 1.83-7.232 5.437-10.75"/><path fill="#616161" d="M84 575c3.342 1.052 4.113 2.183 6 5.23a254 254 0 0 1 2 3.957q.998 1.96 2 3.918l.984 1.943c1.581 3.038 3.296 5.991 5.016 8.952l-3 3c-5.979-6.87-10.768-14.464-14-23 .313-2.418.313-2.418 1-4"/><path fill="#120972" d="m234 768 1 4-1.95 1.582c-4.663 3.799-9.3 7.616-13.866 11.531-4.826 4.128-9.692 8.211-14.684 12.137l-2.844 2.266C199 801 199 801 196.156 800.734L194 800c3.201-2.458 6.522-4.692 9.875-6.937C211.4 787.929 218.195 782.038 225 776l2.883-2.543Q230.952 770.74 234 768"/><path fill="#2F2E40" d="M421 776c5.419-.226 9.775.533 15 2l1 7h-15z"/><path fill="#88A6E7" d="M512 296c4.481 3.656 6.26 8.387 8.5 13.563l1.195 2.723A806 806 0 0 1 525 320l1.473 3.48c2.131 5.417 2.966 9.7 2.527 15.52l-4-2 .156-3.04c-.165-4.192-1.12-7.493-2.656-11.335l-.792-2.049C518.535 312.54 514.785 304.762 511 297z"/><path fill="#A3A3A3" d="M551 145c4.264.492 7.187 2.938 10 6 6.421 9.342 7.71 16.803 7 28-.72 2.728-1.569 4.555-3 7h-3l.656-1.617c3.044-8.145 3.586-15.887.532-24.14-2.846-5.373-7.156-9.889-12.188-13.243z"/><path fill="#666363" d="m516 357 2.375 1.438c4.547 1.96 8.724 2.281 13.625 2.562l1 4h-23z"/><path fill="#F5A2A0" d="m118 776 12 2-1 6c-3.143 1.572-6.558 1.232-10 1l-3-1c.875-5.75.875-5.75 2-8"/><path fill="#B0ADAD" d="M724 520c.125 2.875.125 2.875 0 6-2 2-2 2-5.04 2.195l-3.585-.07-3.602-.055L709 528v-4q2.904-1.007 5.813-2l3.269-1.125C721 520 721 520 724 520"/><path fill="#626262" d="M647 400h2c-.742 4.327-2.067 8.404-3.437 12.563A111.3 111.3 0 0 0 641 433h-2c-.811-11.561 2.947-22.714 8-33"/><path fill="#A6A6A6" d="M481 215c5.477 1.565 8.23 5.091 11.129 9.855 1.074 2.644 1.137 4.735 1.121 7.583l.016 2.808c-.281 2.915-1.054 5.103-2.266 7.754h-2l.5-2.5c1.063-7.444 1.163-11.518-3.121-17.742-1.639-2.09-3.468-3.918-5.379-5.758z"/><path fill="#272633" d="M669 569c5.053.15 9.434.428 13.126 4.134 1.863 2.76 3.488 5.556 5.062 8.491l1.728 3.008A317 317 0 0 1 693 592l-2 2a2932 2932 0 0 1-6-9.375l-1.734-2.695-1.641-2.578-1.523-2.38C679 575 679 575 679 573l-9-1z"/><path fill="#F8A676" d="M512 339c9.738.615 9.738.615 14 4 1.813 2.188 1.813 2.188 3 4l-1.61-.867c-2.819-1.336-5.674-2.29-8.64-3.258l-3.266-1.07L513 341l1.938 1.875c4.209 4.197 8.109 8.69 12.062 13.125-3 0-3 0-4.613-1.574l-1.7-2.113c-2.983-3.575-6.022-6.453-9.687-9.313z"/><path fill="#7A92ED" d="M805 792c.75 1.688.75 1.688 1 4-2.134 3.277-3.25 4.75-7 6a81 81 0 0 1-5.437.313l-2.872.113c-3.395-.537-4.529-1.835-6.691-4.426l3.105.14q2.042.057 4.082.11l2.042.102c3.661.071 5.593-.237 8.697-2.243 2.115-1.934 2.115-1.934 3.074-4.109"/><path fill="#2D2C3E" d="M446 777c5.187.314 8.595 3.3 12 7v2h-9z"/><path fill="#0D0469" d="m114 793 25 2v2c-3.604.058-7.208.094-10.812.125l-3.104.05-2.979.02-2.745.032C117 797 117 797 114 795z"/><path fill="#170D81" d="m234 768 1 4q-2.625 2.158-5.25 4.313c-.975.8-1.95 1.6-2.953 2.425A188 188 0 0 1 220 784c3.047-6.855 8.383-11.269 14-16"/><path fill="#242424" d="M294 605c0 3.19-.425 4.113-1.969 6.793l-1.23 2.158-1.301 2.236-1.3 2.272q-1.593 2.774-3.2 5.541h-3c1.573-4.728 4.206-8.343 7.125-12.312l1.418-1.956q1.723-2.37 3.457-4.732"/><path fill="#180E86" d="M151 794h14l-1 3h-14z"/><path fill="#141414" d="M368 648h14v5c-4.847-.782-9.377-2.398-14-4z"/><path fill="#131315" d="M142 736c3.574 2.68 6.32 5.426 9 9l-1 2-9-5z"/><path fill="#CC9998" d="M405 707c2.62 2.62 3.442 5.575 4.625 9l.695 1.945c1.68 4.78 1.68 4.78 1.68 7.055h-2l-1 2q-1.005-4.154-2-8.312l-.578-2.381-.547-2.295-.508-2.11C405 710 405 710 405 707"/><path fill="#0D0463" d="m204 793 2 1c-4.185 5.785-4.185 5.785-8.312 6.875L195 801l-1-2a546 546 0 0 1 4.875-3.062l2.742-1.723z"/><path fill="#EC9C9A" d="m381 656 3 1 1 6c-3.735-.498-5.812-.875-9-3 2.313-2.062 2.313-2.062 5-4"/><path fill="#9F9F9F" d="M491 229h2c.369 9.41.369 9.41-2 14h-2z"/><path fill="#869CD5" d="m526 330 3 1v8l-4-2z"/><path fill="#8DADF1" d="M390 177c3.487 1.11 6.775 2.263 10 4v2c-3.941-.563-6.75-1.68-10-4z"/><path fill="#84A0DE" d="m457 397 2 1c-1.049 2.622-1.65 3.794-4.125 5.25L453 404c0-3 0-3 2-5.187z"/><path fill="#1E1D1D" d="M285 618h2l-1 5-4 1c1.875-4.875 1.875-4.875 3-6"/><path fill="#839FDC" d="M516 302c2.154 2.622 3.4 4.644 4 8h-3c-1.354-2.709-1.065-5.01-1-8"/><path fill="#A5A5A5" d="M566 179c1 3 1 3 .063 5.188L565 186h-3c.602-2.02 1.273-4.021 2-6z"/></svg>