<svg width="500" height="400" viewBox="0 0 500 400" xmlns="http://www.w3.org/2000/svg">

<!-- Tablet -->
<rect x="70" y="140" rx="20" ry="20" width="360" height="200" fill="#0B3A53"></rect>

<rect x="90" y="160" rx="15" ry="15" width="320" height="160" fill="#F3FBFF"></rect>

<!-- Cloud -->
<path d="M180 230
C170 210,190 190,220 200
C230 170,300 180,290 220
C330 220,340 260,300 270
H190
C160 270,160 240,180 230Z" fill="#0EA5E9"></path>

<!-- Database -->
<ellipse cx="245" cy="235" rx="28" ry="10" fill="white"></ellipse>
<rect x="217" y="235" width="56" height="40" fill="white"></rect>
<ellipse cx="245" cy="275" rx="28" ry="10" fill="white"></ellipse>

<!-- Users -->
<!-- Left -->
<circle cx="120" cy="90" r="18" fill="#FBBF24"></circle>
<rect x="102" y="108" width="36" height="42" rx="10" fill="#FBBF24"></rect>

<!-- Center -->
<circle cx="250" cy="60" r="18" fill="#111827"></circle>
<rect x="232" y="78" width="36" height="42" rx="10" fill="#111827"></rect>

<!-- Right -->
<circle cx="380" cy="90" r="18" fill="#22C55E"></circle>
<rect x="362" y="108" width="36" height="42" rx="10" fill="#22C55E"></rect>

<!-- Connection -->
<path d="M120 110 Q250 20 380 110" stroke="#6B7280" stroke-width="3" stroke-dasharray="8 6" fill="none"></path>

</svg>
